<svg id="Capa_1" enable-background="new 0 0 512 512" height="512" viewBox="0 0 512 512" width="512" xmlns="http://www.w3.org/2000/svg"><g><g><path d="m380.491 502h-245.906c-32.227 0-58.352-26.125-58.352-58.352v-155.927h304.258z" fill="#e2c4ff"/></g><g fill="#020288"><path d="m435.767 87.416h-45.275v-.721c-.001-47.803-39.35-86.695-87.717-86.695-13.293 0-25.905 2.938-37.206 8.191-11.302-5.253-23.914-8.191-37.207-8.191-48.367 0-87.717 38.892-87.717 86.695v.721h-64.412c-5.523 0-10 4.478-10 10v350.034c0 35.593 29.283 64.55 65.276 64.55h248.982c35.993 0 65.275-28.957 65.275-64.55v-350.034c.001-5.522-4.477-10-9.999-10zm-132.992-67.416c37.339 0 67.717 29.919 67.717 66.695v.721h-54.412v-.721c0-25.732-11.402-48.882-29.475-64.774 5.183-1.255 10.599-1.921 16.17-1.921zm-37.207 10.992c18.368 11.941 30.511 32.452 30.511 55.703v.721h-61.022v-.721c0-23.251 12.143-43.762 30.511-55.703zm-104.923 55.703c0-36.776 30.378-66.695 67.717-66.695 5.571 0 10.987.666 16.17 1.921-18.073 15.892-29.475 39.041-29.475 64.774v.721h-54.412zm-74.412 360.755v-340.034h54.412v64.071c0 5.522 4.477 10 10 10s10-4.478 10-10v-64.071h135.434v64.071c0 5.522 4.478 10 10 10 5.523 0 10-4.478 10-10v-64.071h54.412v384.584h-238.982c-24.965 0-45.276-19.985-45.276-44.55zm339.534 0c0 21.186-15.105 38.964-35.275 43.455v-383.489h35.275z"/><path d="m168.966 351.415h-.099c-5.522.054-9.956 4.574-9.903 10.097l.255 26.348-22.111-32.019c-2.487-3.602-7.027-5.164-11.205-3.864-4.178 1.303-7.024 5.171-7.024 9.547v57.867c0 5.522 4.477 10 10 10s10-4.478 10-10v-25.789l20.902 30.268c2.786 4.024 7.663 5.791 12.134 4.392 4.611-1.44 7.59-5.689 7.589-10.922l-.542-56.021c-.052-5.491-4.518-9.904-9.996-9.904z"/><path d="m226.379 371.68c5.523 0 10-4.478 10-10s-4.477-10-10-10h-24.205c-5.523 0-10 4.478-10 10v57.446c0 5.522 4.477 10 10 10h24.205c5.523 0 10-4.478 10-10 0-5.523-4.477-10-10-10h-14.205v-8.724h12.421c5.523 0 10-4.478 10-10s-4.477-10-10-10h-12.421v-8.723h14.205z"/><path d="m320.34 351.714c-5.419-1.076-10.682 2.439-11.76 7.855l-4.593 23.076-7.447-24.175c-1.627-5.276-7.223-8.237-12.501-6.612-3.555 1.095-6.059 3.993-6.817 7.381l-7.248 23.416-4.586-23.181c-1.071-5.418-6.338-8.946-11.75-7.869-5.418 1.071-8.941 6.332-7.87 11.75l11.296 57.104c.094.478.224.947.386 1.405 1.602 4.51 5.877 7.525 10.656 7.525.025 0 .052-.001.076-.001 4.811-.032 9.082-3.113 10.631-7.668.029-.087.058-.174.085-.262l8.079-26.099 8.042 26.103c.041.135.086.268.133.401 1.602 4.51 5.877 7.525 10.656 7.525.025 0 .052-.001.076-.001 4.81-.032 9.082-3.113 10.631-7.668.141-.414.255-.838.34-1.267l11.341-56.982c1.078-5.413-2.44-10.678-7.856-11.756z"/></g></g></svg>