<svg id="Capa_1" enable-background="new 0 0 512 512" height="512" viewBox="0 0 512 512" width="512" xmlns="http://www.w3.org/2000/svg"><g><g><g><path d="m497.751 89.988-11.682-3.056c-5.397-1.412-9.625-5.656-11.032-11.076l-3.041-11.71h-265.622l-3.02 11.748c-.684 2.659-2.034 5.014-4.014 7.001-1.977 1.984-4.32 3.337-6.964 4.021l-11.723 3.036.026 132.712 11.682 3.056c5.396 1.411 9.624 5.656 11.032 11.077l3.042 11.709h265.62l3.02-11.748c.684-2.658 2.034-5.014 4.015-7.001 1.977-1.984 4.32-3.337 6.963-4.021l11.724-3.035z" fill="#a4fcc4"/></g></g><g fill="#020288"><path d="m500.429 297.437c-7.664-7.953-17.957-12.432-28.983-12.614-11.037-.16-21.46 3.954-29.451 11.715l-58.308 57.743c-8.835-28.111-35.067-48.552-65.968-48.552h-51.061c-10.567-17.873-29.898-29.106-50.911-29.106-28.281 0-52.078 19.9-57.833 46.782h-13.724v-5.249c0-5.523-4.478-10-10.001-10h-124.189c-5.523 0-10 4.478-10 10v99.069c0 5.523 4.478 10 10 10h124.189c5.523 0 10.001-4.478 10.001-10v-5.248h19.175c10.823 21.719 33.235 35.878 57.805 35.878h168.199c10.77 0 20.963-4.139 28.756-11.709l81.342-80.231c16.328-15.857 16.758-42.091.962-58.478zm-376.24 109.788h-104.188v-79.068h104.188zm361.288-65.604-81.342 80.231c-3.984 3.87-9.229 6.001-14.766 6.001h-168.199c-18.607 0-35.426-11.782-41.851-29.318-1.443-3.94-5.194-6.56-9.39-6.56h-25.739v-48.569h22.466c5.325 0 9.716-4.173 9.988-9.492 1.066-20.91 18.242-37.291 39.104-37.291 15.377 0 29.399 9.106 35.721 23.199 1.612 3.594 5.185 5.906 9.124 5.906h57.126c23.694 0 43.525 16.93 48.137 39.381h-100.951c-5.523 0-10 4.478-10 10s4.478 10 10 10h111.96c2.467 0 4.726-.894 6.47-2.376.015-.012.029-.025.044-.037.036-.031.072-.063.108-.094.029-.026.059-.052.088-.078.02-.018.039-.036.059-.054.043-.04.087-.08.13-.121.003-.002.005-.005.008-.007.047-.044.093-.089.139-.134l72.09-71.392c4.08-3.961 9.492-6.066 15.116-5.997 5.67.094 10.966 2.4 14.913 6.495v.001c8.17 8.48 7.948 22.05-.553 30.306z"/><path d="m319.294 185.274c-3.467-4.302-9.76-4.978-14.062-1.515-4.301 3.465-4.979 9.761-1.515 14.062 6.24 7.745 15.305 12.029 24.245 13.978v.09c0 5.523 4.478 10 10 10 5.306 0 9.646-4.133 9.979-9.355 15.814-2.485 26.955-12.769 28.745-26.861 2.047-16.119-8.452-31.592-25.531-37.631-1.107-.391-2.171-.77-3.193-1.136v-24.736c2.099.91 3.585 2.11 4.399 3.269 3.171 4.523 9.41 5.618 13.929 2.443 4.522-3.172 5.615-9.409 2.443-13.929-4.083-5.819-11.337-10.719-20.771-12.543v-.658c0-5.523-4.478-10-10-10s-10 4.478-10 10v1.37c-.988.24-1.986.511-2.995.815-11.343 3.417-19.903 14.417-20.818 26.75-.906 12.221 5.58 22.831 17.349 28.38 1.464.691 3.674 1.618 6.464 2.717v30.27c-3.464-1.269-6.56-3.164-8.668-5.78zm37.551-2.121c-.547 4.307-3.71 7.433-8.882 8.948v-23.661c6.882 3.754 9.485 9.964 8.882 14.713zm-32.75-51.985c.219-2.953 1.743-5.791 3.867-7.55v15.19c-2.802-1.918-4.101-4.48-3.867-7.64z"/></g></g></svg>