<svg id="Capa_1" enable-background="new 0 0 512 512" height="512" viewBox="0 0 512 512" width="512" xmlns="http://www.w3.org/2000/svg"><g><g><path d="m434.213 280.735h-185.696c-17.637 0-31.935-14.298-31.935-31.935v-187.087c0-17.637 14.298-31.935 31.935-31.935h185.697c17.637 0 31.935 14.297 31.935 31.935v187.087c-.001 17.637-14.299 31.935-31.936 31.935z" fill="#fff59b"/></g><g fill="#020288"><path d="m500.429 331.804c-7.664-7.953-17.957-12.432-28.984-12.614-11.009-.185-21.459 3.954-29.449 11.716l-58.308 57.742c-8.835-28.112-35.067-48.552-65.968-48.552h-51.061c-10.567-17.873-29.897-29.105-50.911-29.105-28.281 0-52.078 19.9-57.833 46.781h-13.725v-5.249c0-5.523-4.478-10-10-10h-124.19c-5.523 0-10 4.478-10 10v99.07c0 5.523 4.478 10 10 10h124.189c5.523 0 10-4.478 10-10v-5.249h19.174c10.824 21.719 33.236 35.878 57.806 35.878h168.199c10.769 0 20.962-4.138 28.756-11.707l81.342-80.232c16.329-15.858 16.759-42.092.963-58.479zm-376.24 109.789h-104.188v-79.069h104.188zm361.288-65.605-81.342 80.232c-3.984 3.869-9.229 6-14.766 6h-168.199c-18.608 0-35.426-11.782-41.851-29.318-1.443-3.94-5.194-6.56-9.39-6.56h-25.739v-48.569h22.466c5.325 0 9.716-4.173 9.988-9.492 1.066-20.91 18.242-37.29 39.104-37.29 15.378 0 29.399 9.106 35.721 23.198 1.612 3.594 5.185 5.907 9.124 5.907h57.126c23.694 0 43.525 16.93 48.137 39.381h-100.951c-5.523 0-10 4.478-10 10s4.478 10.001 10 10.001h111.96c2.468 0 4.727-.895 6.471-2.377.014-.012.029-.024.043-.036.036-.031.072-.063.108-.094.029-.026.059-.052.087-.078.02-.018.039-.036.059-.054.044-.04.087-.08.13-.121.003-.002.005-.005.007-.007.047-.044.093-.089.139-.134l72.09-71.391c4.079-3.961 9.445-6.09 15.116-5.998 5.67.094 10.966 2.401 14.913 6.495v.001c8.172 8.478 7.95 22.048-.551 30.304z"/><path d="m306.972 115.967h68.785c5.523 0 10.001-4.478 10.001-10v-30.148c0-5.523-4.478-10-10.001-10s-10 4.478-10 10v20.146h-48.784v-20.146c0-5.523-4.478-10-10-10s-10 4.478-10 10v30.147c-.001 5.523 4.476 10.001 9.999 10.001z"/><path d="m277.883 246.951h126.965c5.523 0 10-4.478 10-10.001v-60.512c0-5.523-4.478-10-10-10h-126.965c-5.523 0-10 4.478-10 10v60.512c0 5.523 4.477 10.001 10 10.001zm10.001-60.513h106.963v40.512h-106.963z"/></g></g></svg>