<svg id="Capa_1" enable-background="new 0 0 512 512" height="512" viewBox="0 0 512 512" width="512" xmlns="http://www.w3.org/2000/svg"><g><g><path d="m126.578 70.453h258.844v101.671h-258.844z" fill="#a4fcc4"/></g><g fill="#020288"><path d="m399.091 0h-286.182c-23.092 0-41.878 18.786-41.878 41.878v428.244c0 23.092 18.787 41.878 41.878 41.878h286.182c23.092 0 41.878-18.786 41.878-41.878v-428.244c0-23.092-18.786-41.878-41.878-41.878zm21.878 470.122c0 12.063-9.814 21.878-21.878 21.878h-286.182c-12.064 0-21.878-9.815-21.878-21.878v-428.244c0-12.063 9.814-21.878 21.878-21.878h286.182c12.064 0 21.878 9.815 21.878 21.878z"/><path d="m376.207 217.941h-240.414c-5.523 0-10 4.477-10 10v212.564c0 5.522 4.477 10 10 10h240.414c5.523 0 10-4.478 10-10v-212.564c0-5.522-4.477-10-10-10zm-230.414 90.855h60.138v50.855h-60.138zm80.138 0h60.138v50.855h-60.138zm60.138-20h-60.138v-50.854h60.138zm-140.276-50.855h60.138v50.854h-60.138zm0 141.71h60.138v50.854h-60.138zm80.138 0h60.138v50.854h-60.138zm140.276 50.855h-60.138v-192.565h60.138z"/><path d="m332.297 326.139h7.681c5.523 0 10-4.478 10-10s-4.477-10-10-10h-7.681c-5.523 0-10 4.478-10 10s4.477 10 10 10z"/><path d="m332.297 362.309h7.681c5.523 0 10-4.478 10-10s-4.477-10-10-10h-7.681c-5.523 0-10 4.478-10 10s4.477 10 10 10z"/></g></g></svg>