<svg id="Capa_1" enable-background="new 0 0 512 512" height="512" viewBox="0 0 512 512" width="512" xmlns="http://www.w3.org/2000/svg"><g><g><path d="m361.343 41.213 32.267 62.833 69.796 11.185c12.768 2.046 17.845 17.695 8.711 26.847l-49.851 49.949 10.907 69.688c1.997 12.759-11.285 22.423-22.81 16.596l-63.12-31.909-63.12 31.909c-11.525 5.827-24.807-3.837-22.81-16.596l10.907-69.688-49.851-49.949c-9.134-9.152-4.057-24.801 8.711-26.847l69.796-11.185 32.267-62.833c5.896-11.479 22.305-11.479 28.2 0z" fill="#b2f0fb"/></g><g><path d="m500.429 328.979c-7.664-7.953-17.957-12.432-28.984-12.614-10.983-.178-21.459 3.955-29.449 11.716l-58.308 57.742c-8.835-28.112-35.067-48.552-65.968-48.552h-51.061c-10.566-17.871-29.898-29.105-50.911-29.105-28.28 0-52.078 19.9-57.833 46.781h-13.725v-5.249c0-5.523-4.477-10-10-10h-124.19c-5.523 0-10 4.478-10 10v99.069c0 5.523 4.477 10 10 10h124.189c5.523 0 10-4.478 10-10v-5.248h19.175c10.822 21.719 33.234 35.878 57.805 35.878h168.199c10.769 0 20.962-4.138 28.756-11.708l81.342-80.232c16.329-15.857 16.759-42.091.963-58.478zm-376.24 109.788h-104.188v-79.068h104.188zm361.288-65.604-81.342 80.232c-3.984 3.869-9.229 6-14.766 6h-168.2c-18.608 0-35.426-11.782-41.85-29.318-1.443-3.94-5.194-6.56-9.39-6.56h-25.739v-48.569h22.465c5.325 0 9.716-4.173 9.987-9.492 1.066-20.91 18.243-37.29 39.105-37.29 15.378 0 29.399 9.106 35.721 23.198 1.613 3.594 5.185 5.906 9.124 5.906h57.127c23.694 0 43.525 16.93 48.137 39.381h-100.951c-5.523 0-10 4.478-10 10s4.478 10 10 10h111.96c2.468 0 4.727-.895 6.471-2.376.014-.012.029-.024.043-.036.036-.031.072-.063.108-.095.029-.026.059-.051.087-.078.02-.018.039-.036.059-.054.044-.04.087-.08.13-.121.003-.002.005-.005.007-.007.047-.044.093-.089.139-.134l72.09-71.391c4.078-3.961 9.433-6.093 15.116-5.998 5.67.094 10.966 2.401 14.913 6.495v.001c8.172 8.48 7.95 22.05-.551 30.306z" fill="#020288"/></g></g></svg>