<svg id="Capa_1" enable-background="new 0 0 512 512" height="512" viewBox="0 0 512 512" width="512" xmlns="http://www.w3.org/2000/svg"><g><g><g><path d="m234.019 38.7v195.761c0 28.08 23.066 50.843 51.52 50.843h120.217c28.453 0 51.52-22.763 51.52-50.843v-195.761z" fill="#e2c4ff"/></g></g><g fill="#020288"><path d="m345.647 165.507c33.36 0 60.5-27.14 60.5-60.499v-25.492c0-5.523-4.477-10-10-10s-10 4.478-10 10v25.492c0 22.331-18.168 40.498-40.499 40.498s-40.498-18.167-40.498-40.498v-25.492c0-5.523-4.477-10-10-10s-10.001 4.478-10.001 10v25.492c-.001 33.359 27.138 60.499 60.498 60.499z"/><path d="m500.429 322.883c-7.664-7.953-17.957-12.432-28.984-12.614-11.026-.183-21.459 3.955-29.45 11.716l-58.308 57.742c-8.835-28.112-35.067-48.552-65.968-48.552h-51.061c-10.566-17.871-29.897-29.105-50.911-29.105-28.281 0-52.078 19.9-57.833 46.781h-13.724v-5.248c0-5.523-4.477-10-10.001-10h-124.189c-5.523 0-10 4.478-10 10v99.069c0 5.523 4.477 10 10 10h124.189c5.523 0 10.001-4.478 10.001-10v-5.249h19.175c10.822 21.719 33.234 35.878 57.805 35.878h168.199c10.769 0 20.962-4.138 28.757-11.708l81.342-80.232c16.326-15.856 16.757-42.09.961-58.478zm-376.24 109.789h-104.188v-79.068h104.188zm361.288-65.605-81.342 80.232c-3.985 3.869-9.229 6-14.767 6h-168.199c-18.608 0-35.426-11.782-41.851-29.318-1.443-3.94-5.194-6.56-9.39-6.56h-25.738v-48.57h22.465c5.325 0 9.716-4.173 9.987-9.492 1.066-20.91 18.243-37.29 39.105-37.29 15.378 0 29.399 9.106 35.721 23.197 1.612 3.595 5.185 5.907 9.125 5.907h57.127c23.694 0 43.525 16.93 48.137 39.381h-100.952c-5.523 0-10 4.478-10 10 0 5.523 4.477 10 10 10h111.96c2.477 0 4.744-.901 6.491-2.393.005-.004.009-.008.014-.012.046-.039.091-.079.136-.119.021-.018.041-.036.062-.055.028-.025.055-.051.083-.077.036-.033.072-.066.107-.1.01-.009.02-.02.03-.029.04-.038.081-.077.121-.117l72.091-71.388c4.078-3.961 9.436-6.11 15.115-5.997 5.67.094 10.966 2.401 14.913 6.495 8.172 8.479 7.95 22.049-.551 30.305z"/></g></g></svg>