<svg id="Capa_1" enable-background="new 0 0 512 512" height="512" viewBox="0 0 512 512" width="512" xmlns="http://www.w3.org/2000/svg"><g><g><g><path d="m179.799 437.185-.595 4.489v.001l-.051.377 76.847 59.948 76.848-59.948-18.419-139.135z" fill="#a4fcc4"/></g><path d="m296.933 170.737-94.158 92.888-11.642 87.943 114.609-114.3z" fill="#a4fcc4"/></g><g><path d="m342.761 440.739-27.076-204.538c-.018-.169-.04-.338-.067-.506l-18.711-141.341 25.867-44.227c5.322-9.102 5.081-20.262-.629-29.125l-10.577-16.418c-1.841-2.857-5.008-4.584-8.407-4.584h-94.322c-3.399 0-6.565 1.727-8.406 4.584l-10.577 16.418c-5.71 8.863-5.952 20.023-.629 29.126l25.866 44.226-45.796 345.96-.052.377c-.485 3.531.946 7.053 3.756 9.245l76.848 59.948c1.808 1.41 3.979 2.115 6.151 2.115 2.171 0 4.343-.705 6.151-2.115l76.848-59.948c2.796-2.181 4.228-5.68 3.762-9.197zm-108.542-338.467h43.562l.772 5.829-51.965 51.824zm-11.939 90.197 59.576-59.415 13.321 100.628-90.269 90.025zm-15.612-160.635 7.624-11.834h83.416l7.624 11.834c1.608 2.495 1.675 5.636.178 8.196l-24.704 42.238h-49.612l-24.703-42.237c-1.498-2.561-1.43-5.702.177-8.197zm49.332 457.483-66.181-51.628 10.781-81.44 97.88-97.616 23.703 179.055z" fill="#020288"/></g></g></svg>