<svg id="Capa_1" enable-background="new 0 0 512 512" height="512" viewBox="0 0 512 512" width="512" xmlns="http://www.w3.org/2000/svg"><g><g><path d="m382.106 302.848c0 9.293-9.836 17.358-11.815 26.053-2.044 8.978 3.265 20.495-.648 28.595-3.978 8.234-16.346 11.247-22.002 18.32-5.683 7.107-5.893 19.809-13.011 25.484-7.083 5.647-19.523 3.046-27.769 7.018-8.112 3.908-13.805 15.28-22.796 17.32-8.708 1.976-18.758-5.758-28.065-5.758s-19.357 7.734-28.065 5.758c-8.992-2.041-14.684-13.413-22.796-17.321-8.246-3.972-20.686-1.371-27.769-7.018-7.117-5.675-7.328-18.377-13.011-25.484-5.656-7.073-18.024-10.086-22.002-18.32-3.914-8.1 1.395-19.617-.648-28.595-1.979-8.695-11.816-16.76-11.816-26.053 0-9.294 9.836-17.358 11.816-26.054 2.044-8.978-3.265-20.495.648-28.595 3.978-8.234 16.346-11.247 22.002-18.32 5.683-7.107 5.893-19.809 13.011-25.484 7.083-5.647 19.523-3.046 27.769-7.018 8.112-3.908 13.805-15.28 22.796-17.32 8.708-1.977 18.758 5.758 28.065 5.758s19.357-7.734 28.065-5.758c8.991 2.041 14.684 13.413 22.796 17.321 8.246 3.972 20.686 1.371 27.769 7.018 7.117 5.675 7.328 18.377 13.011 25.484 5.656 7.072 18.024 10.086 22.002 18.32 3.914 8.1-1.395 19.617.648 28.595 1.979 8.696 11.815 16.761 11.815 26.054z" fill="#ffbdbc"/></g><g fill="#020288"><path d="m475.294 64.223h-27.736c-.088-19.029-15.595-34.482-34.643-34.482-19.049 0-34.555 15.453-34.643 34.482h-87.628c-.089-19.029-15.595-34.482-34.644-34.482s-34.555 15.453-34.644 34.482h-87.628c-.088-19.029-15.595-34.482-34.643-34.482s-34.555 15.453-34.643 34.482h-27.736c-20.24 0-36.706 16.5-36.706 36.782v350.819c0 16.781 13.601 30.435 30.317 30.435h451.365c16.717 0 30.317-13.653 30.317-30.435v-350.819c.001-20.282-16.465-36.782-36.705-36.782zm-62.379-14.482c8.021 0 14.556 6.481 14.643 14.482h-29.287c.088-8.001 6.623-14.482 14.644-14.482zm-156.915 0c8.021 0 14.556 6.481 14.643 14.482h-29.287c.088-8.001 6.623-14.482 14.644-14.482zm-156.915 0c8.021 0 14.556 6.481 14.643 14.482h-29.286c.088-8.001 6.623-14.482 14.643-14.482zm-79.085 51.264c0-9.254 7.494-16.782 16.706-16.782h72.187c-2.598 2.347-6.039 3.778-9.808 3.778-5.523 0-10 4.478-10 10s4.477 10 10 10c15.309 0 28.33-9.981 32.899-23.778h133.824c-2.598 2.347-6.039 3.778-9.808 3.778-5.523 0-10 4.478-10 10s4.477 10 10 10c15.309 0 28.33-9.981 32.899-23.778h133.823c-2.598 2.347-6.039 3.778-9.808 3.778-5.523 0-10 4.478-10 10s4.477 10 10 10c15.309 0 28.33-9.981 32.899-23.778h29.48c9.212 0 16.706 7.528 16.706 16.782v22.432h-471.999zm472 350.819c0 5.754-4.628 10.435-10.317 10.435h-451.366c-5.689 0-10.317-4.681-10.317-10.435v-308.388h472z"/><path d="m227.875 370.639c1.262.528 2.572.779 3.859.779 3.91 0 7.622-2.308 9.228-6.14l50.144-119.704c2.134-5.094-.266-10.953-5.36-13.087-5.094-2.131-10.954.267-13.087 5.36l-50.144 119.704c-2.134 5.095.266 10.954 5.36 13.088z"/><path d="m222.139 297.721c17.731 0 32.156-16.057 32.156-35.794s-14.425-35.795-32.156-35.795-32.156 16.058-32.156 35.795 14.425 35.794 32.156 35.794zm0-51.589c6.589 0 12.156 7.233 12.156 15.795s-5.567 15.794-12.156 15.794-12.156-7.232-12.156-15.794 5.567-15.795 12.156-15.795z"/><path d="m257.705 343.77c0 19.737 14.425 35.795 32.156 35.795s32.156-16.058 32.156-35.795-14.425-35.794-32.156-35.794-32.156 16.056-32.156 35.794zm44.312 0c0 8.562-5.567 15.795-12.156 15.795s-12.156-7.233-12.156-15.795c0-8.561 5.567-15.794 12.156-15.794s12.156 7.232 12.156 15.794z"/></g></g></svg>