<svg id="Capa_1" enable-background="new 0 0 512 512" height="512" viewBox="0 0 512 512" width="512" xmlns="http://www.w3.org/2000/svg"><g><g><g><path d="m153.08 171.688h165.725v168.625h-165.725z" fill="#a4fcc4"/></g></g><g fill="#020288"><path d="m412.027 217.511h-30.115v-23.574h28.115c5.522 0 10-4.477 10-10 0-5.522-4.478-10-10-10h-28.115v-18.764c0-25.229-20.525-45.754-45.755-45.754h-15.587l-9.169-100.329c-.47-5.148-4.788-9.09-9.958-9.09h-131.002c-5.17 0-9.488 3.941-9.958 9.09l-9.169 100.329h-15.588c-25.229 0-45.754 20.525-45.754 45.754v201.654c0 25.229 20.525 45.754 45.754 45.754h15.588l9.169 100.329c.47 5.148 4.788 9.09 9.958 9.09h131.002c5.17 0 9.488-3.941 9.958-9.09l9.169-100.329h15.587c25.229 0 45.755-20.525 45.755-45.754v-74.977h30.115c5.522 0 10-4.478 10-10v-44.34c0-5.522-4.477-9.999-10-9.999zm-232.458-197.511h112.746l8.172 89.419h-129.09zm112.746 472h-112.746l-8.172-89.419h129.09zm69.597-135.173c0 14.201-11.554 25.754-25.755 25.754h-200.43c-14.201 0-25.754-11.553-25.754-25.754v-201.654c0-14.201 11.553-25.754 25.754-25.754h200.431c14.201 0 25.755 11.553 25.755 25.754v201.654zm40.115-94.976h-20.115v-24.34h20.115z"/><path d="m271.894 253.344h-25.951v-44.798c0-5.522-4.478-10-10-10s-10 4.478-10 10v54.798c0 5.522 4.478 10 10 10h35.951c5.522 0 10-4.478 10-10 0-5.523-4.478-10-10-10z"/></g></g></svg>