<svg id="Capa_1" enable-background="new 0 0 512 512" height="512" viewBox="0 0 512 512" width="512" xmlns="http://www.w3.org/2000/svg"><g><g><g><path d="m117.093 212.643h277.813v64.158h-277.813z" fill="#e2c4ff"/></g></g><g><path d="m509.689 270.407c-1.9-2.285-4.718-3.606-7.69-3.606h-97.094v-84.764c0-46.941-38.189-85.131-85.131-85.131h-127.55c-46.941 0-85.131 38.189-85.131 85.131v84.764h-97.093c-2.897 0-5.65 1.256-7.55 3.442-1.899 2.186-2.757 5.089-2.352 7.957 8.005 56.632 37.592 95.925 87.941 116.787 42.525 17.62 90.08 17.62 112.934 17.62 16.451 0 31.789-3.524 46.516-9.38.725.398 1.511.713 2.349.927 28.011 7.157 57.625 10.939 85.64 10.939 47.118 0 86.099-11.077 115.858-32.925 31.707-23.275 52.061-58.112 60.496-103.543.542-2.92-.242-5.933-2.143-8.218zm-382.595-88.37c0-35.913 29.218-65.131 65.131-65.131h127.551c35.913 0 65.131 29.218 65.131 65.131v84.764h-257.813zm-105.209 104.764h375.001c-32.444 14.626-60.002 34.846-85.542 53.584-38.193 28.022-71.178 52.223-110.371 52.223-73.697-.001-159.62-12.326-179.088-105.807zm313.592 108.293c-19.618 0-40.084-1.975-60.156-5.765 16.078-9.505 31.784-21.028 47.853-32.819 42.949-31.512 87.357-64.094 150.078-69.709h16.357c-22.162 89.13-95.34 108.293-154.132 108.293z" fill="#020288"/></g></g></svg>