<svg id="Capa_1" enable-background="new 0 0 512 512" height="512" viewBox="0 0 512 512" width="512" xmlns="http://www.w3.org/2000/svg"><g><g fill="#ffbdbc"><path d="m87.242 348.787h337.516v59.2h-337.516z"/><path d="m346.242 276.717c-21.64 0-39.183-17.543-39.183-39.183v-34.987h78.366v34.987c0 21.64-17.542 39.183-39.183 39.183z"/></g><g><path d="m451.653 61.26h-87.383l-19.475-38.281c-.015-.031-.04-.081-.075-.149-1.726-3.382-5.223-5.513-9.021-5.485-.004 0-.008 0-.01 0h-159.402c-.003 0-.006 0-.01 0-3.725-.022-7.159 2.038-8.912 5.325-.08.15-.136.257-.161.308l-19.474 38.282h-87.383c-33.276 0-60.347 27.059-60.347 60.32v116.839c0 5.523 4.477 10 10 10h67.242v236.235c0 5.523 4.477 10 10 10h337.516c5.523 0 10-4.477 10-10v-236.235h67.242c5.523 0 10-4.477 10-10v-116.839c0-33.261-27.072-60.32-60.347-60.32zm-195.653 39.651-57.315-63.565h114.631zm77.481-56.063 13.025 25.603-46.633 67.671-29.341-23.461zm-154.962 0 62.949 69.813-29.341 23.461-46.634-67.672zm313.481 183.571h-57.242v-73.58c0-5.522-4.477-10-10-10s-10 4.478-10 10v319.815h-317.516v-319.815c0-5.522-4.477-10-10-10s-10 4.478-10 10v73.58h-57.242v-106.839c0-22.232 18.1-40.32 40.347-40.32h88.306l53.099 77.052c1.575 2.285 4.029 3.813 6.775 4.218.486.072.974.107 1.459.107 2.255 0 4.462-.764 6.245-2.189l39.769-31.8 39.769 31.799c1.784 1.426 3.989 2.189 6.245 2.189.485 0 .973-.035 1.459-.107 2.746-.404 5.2-1.933 6.775-4.218l53.098-77.052h88.306c22.248.001 40.348 18.089 40.348 40.321z" fill="#020288"/></g></g></svg>