<svg id="Capa_1" enable-background="new 0 0 512 512" height="512" viewBox="0 0 512 512" width="512" xmlns="http://www.w3.org/2000/svg"><g><g><path d="m458.507 253.344h-13.315v-64.152c0-104.321-84.871-189.192-189.192-189.192s-189.191 84.871-189.191 189.191v64.152h-13.316c-5.523 0-10 4.477-10 10v194.824c0 29.683 24.149 53.832 53.832 53.832h317.35c29.684 0 53.832-24.149 53.832-53.832v-194.823c0-5.523-4.477-10-10-10zm-10 204.824c0 18.655-15.177 33.832-33.832 33.832h-317.35c-18.655 0-33.832-15.177-33.832-33.832v-184.824h34.869c5.523 0 10-4.478 10-10 0-5.523-4.477-10-10-10h-11.553v-64.152c0-93.293 75.899-169.192 169.191-169.192s169.191 75.899 169.191 169.191v64.152h-14.659c-5.522 0-10 4.477-10 10 0 5.522 4.478 10 10 10h37.975z" fill="#020288"/></g><g><path d="m398.873 239.631h-285.745c-12.385 0-22.426 10.04-22.426 22.425v120.35h38.109c21.519 13.372 45.52 22.034 70.427 25.535l33.018.013c.017-13.099 10.641-23.712 23.745-23.712 13.109 0 23.737 10.624 23.745 23.732l32.692.013c25.023-3.471 49.139-12.15 70.752-25.581h38.109v-120.35c-.001-12.385-10.041-22.425-22.426-22.425z" fill="#fff59b"/><path d="m256 441.732c-18.607 0-33.745-15.138-33.745-33.745s15.138-33.745 33.745-33.745 33.745 15.138 33.745 33.745-15.137 33.745-33.745 33.745zm0-47.49c-7.579 0-13.745 6.166-13.745 13.745s6.166 13.745 13.745 13.745 13.745-6.166 13.745-13.745-6.166-13.745-13.745-13.745z" fill="#020288"/></g></g></svg>