<svg id="Capa_1" enable-background="new 0 0 512 512" height="512" viewBox="0 0 512 512" width="512" xmlns="http://www.w3.org/2000/svg"><g><g><g><path d="m334.299 389.263c-18.764 0-37.246-2.912-54.934-8.654-5.253-1.706-8.129-7.347-6.424-12.6 1.706-5.253 7.344-8.129 12.6-6.424 15.69 5.095 32.095 7.678 48.758 7.678 28.813 0 57-7.839 81.516-22.668 1.984-1.201 4.326-1.675 6.617-1.339l48.104 7.006-7.69-44.233c-.447-2.572.13-5.217 1.607-7.37 18.021-26.272 27.547-57.067 27.547-89.054 0-86.934-70.744-157.659-157.701-157.659-79.486 0-146.768 59.374-156.501 138.108-.678 5.481-5.674 9.364-11.151 8.698-5.482-.678-9.376-5.671-8.698-11.151 10.971-88.738 86.785-155.655 176.351-155.655 97.983 0 177.7 79.697 177.7 177.659 0 34.664-9.932 68.09-28.765 96.943l9.369 53.886c.549 3.158-.449 6.389-2.685 8.686-2.236 2.298-5.44 3.387-8.609 2.923l-58.271-8.486c-26.895 15.52-57.494 23.706-88.74 23.706z" fill="#020288"/></g><g><path d="m149.924 178.283c-82.801 0-149.924 67.106-149.924 149.886 0 31.419 9.67 60.58 26.197 84.671l-8.989 51.701 55.215-8.042c22.616 13.681 49.139 21.555 77.502 21.555 82.801 0 149.924-67.106 149.924-149.885s-67.124-149.886-149.925-149.886z" fill="#fff59b"/></g></g><g><g><path d="m123.16 412.771c-1.288 0-2.598-.251-3.859-.779-5.095-2.134-7.494-7.993-5.36-13.087l55.308-132.033c2.135-5.095 7.995-7.493 13.087-5.36 5.095 2.134 7.494 7.993 5.36 13.087l-55.308 132.033c-1.606 3.831-5.319 6.139-9.228 6.139z" fill="#020288"/></g><g><path d="m112.575 331.484c-18.989 0-34.438-17.249-34.438-38.451s15.448-38.451 34.438-38.451 34.438 17.249 34.438 38.451c.001 21.202-15.449 38.451-34.438 38.451zm0-56.903c-7.961 0-14.438 8.277-14.438 18.451s6.477 18.451 14.438 18.451 14.438-8.277 14.438-18.451c.001-10.173-6.477-18.451-14.438-18.451z" fill="#020288"/></g><g><path d="m187.273 421.757c-18.989 0-34.439-17.249-34.439-38.451s15.449-38.451 34.439-38.451c18.989 0 34.438 17.249 34.438 38.451-.001 21.202-15.449 38.451-34.438 38.451zm0-56.902c-7.961 0-14.439 8.277-14.439 18.451s6.477 18.451 14.439 18.451c7.961 0 14.438-8.277 14.438-18.451-.001-10.174-6.478-18.451-14.438-18.451z" fill="#020288"/></g></g></g></svg>