<svg id="Capa_1" enable-background="new 0 0 512 512" height="512" viewBox="0 0 512 512" width="512" xmlns="http://www.w3.org/2000/svg"><g><g><path d="m195.636 337.111c-14.306 0-27.271 5.768-36.718 15.116-4.078-1.092-8.363-1.674-12.783-1.674-27.338 0-49.5 22.267-49.5 49.734 0 .396.005.792.014 1.186h-2.484c-16.761 0-30.648 12.358-33.13 28.499h167.418v-81.24c-8.976-7.27-20.391-11.621-32.817-11.621z" fill="#a4fcc4"/><g><path d="m461.053 390.638c.36-2.711.545-5.478.545-8.287 0-34.323-27.694-62.148-61.856-62.148-16.911 0-32.237 6.818-43.403 17.868-4.82-1.291-9.885-1.979-15.11-1.979-28.947 0-52.984 21.119-57.681 48.857v45.022h203.021c-.443-17.39-10.753-32.315-25.516-39.333z" fill="#a4fcc4"/></g></g><g fill="#020288"><path d="m248.423 187.579 3.362 8.909c1.951 5.166 7.723 7.777 12.887 5.824 5.167-1.949 7.775-7.72 5.825-12.887l-23.304-61.748c-.035-.092-.071-.183-.108-.273-1.769-4.299-5.913-7.074-10.56-7.074h-.012c-4.653.005-8.797 2.79-10.558 7.097-.031.074-.061.15-.089.225l-23.518 61.745c-1.966 5.161.625 10.938 5.786 12.904 1.172.446 2.374.658 3.558.658 4.03 0 7.828-2.454 9.347-6.443l3.404-8.938h23.98zm-7.548-20h-8.815l4.428-11.625z"/><path d="m289.024 202.759c.724.125 1.181.204 8.202.204 3.382 0 8.289-.019 15.482-.059 5.522-.031 9.975-4.533 9.944-10.056-.031-5.504-4.502-9.944-9.999-9.944h-.057c-4.02.023-8.248.04-11.875.048v-52.622c0-5.522-4.477-10-10-10s-10 4.478-10 10v62.574c0 4.869 3.506 9.03 8.303 9.855z"/><path d="m338.614 202.957h26.149c5.523 0 10-4.477 10-10 0-5.522-4.477-10-10-10h-16.149v-11.027h14.221c5.523 0 10-4.478 10-10 0-5.523-4.477-10-10-10h-14.221v-11.028h16.149c5.523 0 10-4.478 10-10s-4.477-10-10-10h-26.149c-5.523 0-10 4.478-10 10v62.056c0 5.522 4.477 9.999 10 9.999z"/><path d="m177.96 152.754c-7.305-2.693-14.133-5.619-16.618-6.703-.6-.602-.651-1.352-.57-1.915.21-1.465 1.471-2.648 3.458-3.247 7.763-2.337 15.174 3.537 15.248 3.597l.694.493c4.216 2.999 10.028 2.259 13.357-1.702 3.895-4.634 2.764-11.637-2.375-14.837-10.729-6.681-21.408-10.101-32.692-6.702-9.464 2.852-16.165 10.345-17.487 19.556-1.248 8.694 2.523 17.061 9.843 21.832.442.288.905.54 1.387.755.365.163 9.055 4.031 18.835 7.638 3.426 1.264 7.27 3.622 6.826 6.107-.384 2.15-3.447 5.331-8.804 5.331-5.543 0-10.859-2.179-14.27-5.84-3.626-3.892-9.701-4.574-13.835-1.227-4.502 3.645-4.967 10.266-1.131 14.498 7.238 7.987 17.894 12.568 29.235 12.568 14.253 0 26.235-9.175 28.492-21.815 1.715-9.597-2.533-22.094-19.593-28.387z"/><path d="m502 419.972h-208.452v-146.334h153.152c5.523 0 10-4.478 10-10v-203.989c0-5.522-4.477-10-10-10h-153.152v-24.385c0-5.523-4.477-10-10-10h-55.096c-5.523 0-10 4.477-10 10v24.386h-153.152c-5.523 0-10 4.478-10 10v203.988c0 5.522 4.477 10 10 10h153.152v146.334h-208.452c-5.523 0-10 4.477-10 10v56.765c0 5.522 4.477 10 10 10h492c5.523 0 10-4.478 10-10v-56.765c0-5.523-4.477-10-10-10zm-263.548-384.708h35.096v14.386h-35.096zm-163.152 34.385h361.4v183.988h-361.4zm163.152 203.989h35.096v146.334h-35.096zm253.548 203.098h-472v-36.765h472z"/></g></g></svg>