<svg id="Capa_1" enable-background="new 0 0 512 512" height="512" viewBox="0 0 512 512" width="512" xmlns="http://www.w3.org/2000/svg"><g><g><circle cx="228.362" cy="328.703" fill="#b2f0fb" r="110.936"/></g><g fill="#020288"><path d="m435.767 87.416h-45.276v-.721c0-47.803-39.35-86.695-87.717-86.695-13.293 0-25.905 2.938-37.206 8.191-11.301-5.253-23.913-8.191-37.206-8.191-48.367 0-87.717 38.892-87.717 86.695v.721h-64.412c-5.523 0-10 4.478-10 10v350.034c0 35.593 29.283 64.55 65.276 64.55h248.982c35.993 0 65.276-28.957 65.276-64.55v-350.034c0-5.522-4.477-10-10-10zm-132.993-67.416c37.339 0 67.717 29.919 67.717 66.695v.721h-54.412v-.721c0-25.732-11.402-48.882-29.475-64.774 5.183-1.255 10.599-1.921 16.17-1.921zm-37.206 10.992c18.368 11.941 30.511 32.451 30.511 55.703v.721h-61.022v-.721c0-23.251 12.143-43.762 30.511-55.703zm-104.923 55.703c0-36.776 30.378-66.695 67.717-66.695 5.571 0 10.987.666 16.17 1.921-18.073 15.892-29.475 39.041-29.475 64.774v.721h-54.412zm209.846 405.305h-238.982c-24.965 0-45.276-19.985-45.276-44.55v-340.034h54.412v64.071c0 5.522 4.477 10 10 10s10-4.478 10-10v-64.071h135.434v64.071c0 5.522 4.477 10 10 10s10-4.478 10-10v-64.071h54.412zm55.276-44.55c0 21.186-15.105 38.964-35.276 43.455v-383.489h35.276z"/><path d="m254.652 262.288c-5.093-2.132-10.953.267-13.087 5.36l-47.914 114.381c-2.134 5.094.266 10.953 5.36 13.087 1.262.528 2.572.779 3.859.779 3.91 0 7.623-2.308 9.228-6.14l47.914-114.381c2.134-5.093-.266-10.952-5.36-13.086z"/><path d="m224.873 290.828c0-19.104-13.983-34.647-31.171-34.647s-31.171 15.543-31.171 34.647 13.983 34.647 31.171 34.647 31.171-15.542 31.171-34.647zm-42.342 0c0-7.939 5.116-14.647 11.171-14.647s11.171 6.708 11.171 14.647c0 7.94-5.116 14.647-11.171 14.647-6.055.001-11.171-6.707-11.171-14.647z"/><path d="m258.412 334.386c-17.188 0-31.171 15.543-31.171 34.647s13.983 34.646 31.171 34.646 31.171-15.542 31.171-34.646-13.983-34.647-31.171-34.647zm0 49.294c-6.055 0-11.171-6.707-11.171-14.646s5.116-14.647 11.171-14.647 11.171 6.708 11.171 14.647-5.116 14.646-11.171 14.646z"/></g></g></svg>