<svg id="Capa_1" enable-background="new 0 0 512 512" height="512" viewBox="0 0 512 512" width="512" xmlns="http://www.w3.org/2000/svg"><g><g><g><path d="m221.751 321.057 17.636 136.943h33.225l17.636-136.943z" fill="#ffbdbc"/></g><g><path d="m340.728 321.057-17.637 136.943h52.375l16.458-136.943z" fill="#ffbdbc"/></g><g><path d="m171.272 321.057h-51.196l16.458 136.943h52.374z" fill="#ffbdbc"/></g></g><g fill="#020288"><path d="m197.269 98.035h22.703v45.811c0 5.522 4.477 10 10 10h52.056c5.522 0 10-4.478 10-10v-45.811h22.703c3.791 0 7.256-2.144 8.948-5.535 1.692-3.393 1.321-7.449-.958-10.479l-58.731-78.035c-1.89-2.509-4.849-3.986-7.99-3.986-3.142 0-6.101 1.477-7.99 3.986l-58.731 78.035c-2.28 3.029-2.651 7.086-.958 10.479 1.692 3.392 5.157 5.535 8.948 5.535zm58.731-71.405 38.689 51.405h-12.661c-5.522 0-10 4.478-10 10v45.811h-32.056v-45.811c0-5.522-4.477-10-10-10h-12.661z"/><path d="m469.447 219.019h-39.965l-42.527-87.592c-8.221-16.932-28.685-24.021-45.617-15.799-16.931 8.221-24.018 28.685-15.798 45.615l28.051 57.775h-195.182l28.051-57.775c8.221-16.932 1.134-37.395-15.799-45.617-16.933-8.22-37.396-1.133-45.616 15.8l-42.527 87.592h-39.965c-5.523 0-10 4.477-10 10v48.039c0 5.523 4.477 10 10 10h17.479l28.843 216.265c.663 4.968 4.9 8.678 9.912 8.678h314.426c5.012 0 9.25-3.71 9.912-8.678l28.843-216.265h17.48c5.522 0 10-4.477 10-10v-48.039c-.001-5.522-4.479-9.999-10.001-9.999zm-119.374-85.4c1.954-.948 4.053-1.427 6.162-1.427 1.559 0 3.122.261 4.639.786 3.567 1.235 6.441 3.786 8.089 7.183l51.747 106.582c1.649 3.396 1.877 7.231.642 10.799s-3.786 6.441-7.184 8.09c-7.009 3.403-15.484.469-18.889-6.541l-51.747-106.582c-3.404-7.012-.47-15.486 6.541-18.89zm13.228 105.4 13.613 28.039h-241.83l13.613-28.039zm-220.265-98.858c2.442-5.029 7.491-7.961 12.739-7.961 2.068 0 4.168.456 6.151 1.419 7.012 3.404 9.947 11.878 6.542 18.89l-51.747 106.581c-3.404 7.013-11.877 9.947-18.889 6.543-.001-.001-.001-.001-.001-.001-7.011-3.404-9.946-11.878-6.542-18.89zm-90.483 98.858h20.275c-4.122 9.237-3.792 19.417.126 28.039h-20.4v-28.039zm351.905 252.981h-296.916l-27.333-204.942h351.582zm54.989-224.942h-20.381c.438-.966.833-1.956 1.185-2.971 2.862-8.263 2.472-17.121-1.078-25.068h20.275v28.039z"/></g></g></svg>