<svg id="Capa_1" enable-background="new 0 0 512 512" height="512" viewBox="0 0 512 512" width="512" xmlns="http://www.w3.org/2000/svg"><g><g><g><path d="m221.751 321.057 17.637 136.943h33.224l17.637-136.943z" fill="#e2c4ff"/></g><g><path d="m340.728 321.057-17.637 136.943h52.375l16.458-136.943z" fill="#e2c4ff"/></g><g><path d="m171.272 321.057h-51.196l16.458 136.943h52.374z" fill="#e2c4ff"/></g></g><g fill="#020288"><path d="m248.01 149.86c1.89 2.51 4.849 3.986 7.99 3.986s6.101-1.477 7.99-3.986l58.732-78.035c2.279-3.029 2.65-7.086.958-10.479-1.692-3.392-5.157-5.535-8.948-5.535h-22.703v-45.811c0-5.523-4.477-10-10-10h-52.057c-5.522 0-10 4.477-10 10v45.812h-22.703c-3.791 0-7.256 2.144-8.948 5.535-1.692 3.393-1.321 7.449.958 10.479zm-18.038-74.048c5.522 0 10-4.478 10-10v-45.812h32.057v45.812c0 5.522 4.478 10 10 10h12.661l-38.69 51.405-38.689-51.405z"/><path d="m469.447 219.019h-39.965l-42.527-87.592c-8.221-16.932-28.684-24.021-45.617-15.799-16.931 8.221-24.018 28.685-15.798 45.615l28.051 57.775h-195.182l28.051-57.775c8.22-16.931 1.133-37.395-15.799-45.616-16.934-8.22-37.396-1.133-45.616 15.8l-42.528 87.592h-39.964c-5.522 0-10 4.477-10 10v48.039c0 5.523 4.478 10 10 10h17.48l28.843 216.265c.662 4.968 4.9 8.678 9.912 8.678h314.426c5.012 0 9.25-3.71 9.912-8.678l28.843-216.265h17.48c5.522 0 10-4.477 10-10v-48.039c-.002-5.523-4.479-10-10.002-10zm-119.374-85.4c1.954-.948 4.053-1.427 6.162-1.427 1.559 0 3.122.261 4.639.786 3.567 1.235 6.441 3.786 8.089 7.183l51.747 106.582c1.649 3.396 1.877 7.231.642 10.799s-3.786 6.441-7.184 8.09c-7.009 3.403-15.484.469-18.889-6.541l-51.747-106.582c-3.404-7.012-.469-15.486 6.541-18.89zm13.229 105.4 13.613 28.039h-241.829l13.613-28.039zm-220.265-98.858c1.648-3.396 4.521-5.947 8.089-7.183 1.517-.525 3.08-.786 4.639-.786 2.109 0 4.208.479 6.161 1.426 7.012 3.405 9.946 11.879 6.542 18.891l-51.746 106.581c-3.405 7.012-11.879 9.948-18.89 6.542-3.397-1.648-5.948-4.521-7.184-8.09-1.235-3.567-1.008-7.402.642-10.8zm-90.484 98.858h20.274c-3.55 7.948-3.939 16.805-1.078 25.068.351 1.014.747 2.005 1.185 2.971h-20.381zm351.905 252.981h-296.916l-27.333-204.942h351.582zm54.989-224.942h-20.381c.438-.966.833-1.956 1.185-2.971 2.861-8.263 2.472-17.121-1.079-25.068h20.275z"/></g></g></svg>