<svg id="Capa_1" enable-background="new 0 0 512 512" height="512" viewBox="0 0 512 512" width="512" xmlns="http://www.w3.org/2000/svg"><g><g><path d="m187.447 219.766h137.106v202.402h-137.106z" fill="#b2f0fb"/></g><g fill="#020288"><path d="m249.333 472.084h13.334c5.523 0 10-4.478 10-10 0-5.523-4.477-10-10-10h-13.334c-5.522 0-10 4.477-10 10 0 5.522 4.478 10 10 10z"/><path d="m424.605 48.103c0-26.524-21.66-48.103-48.284-48.103h-240.642c-26.624 0-48.284 21.579-48.284 48.103v415.704c0 26.574 21.619 48.193 48.193 48.193h240.824c26.574 0 48.193-21.619 48.193-48.193zm-273.791 63.384c0 11.993-9.757 21.75-21.75 21.75h-.001c-11.355 0-20.705-8.746-21.668-19.856v-39.52c.485-2.973 3.071-5.25 6.178-5.25h37.241zm-43.419 35.675c6.321 3.853 13.74 6.075 21.669 6.075 12.696 0 24.086-5.697 31.75-14.668 7.664 8.971 19.054 14.668 31.75 14.668s24.087-5.697 31.751-14.669c7.664 8.972 19.054 14.669 31.75 14.669s24.087-5.697 31.751-14.669c7.664 8.972 19.054 14.669 31.75 14.669 12.697 0 24.087-5.697 31.751-14.669 7.664 8.972 19.054 14.669 31.75 14.669 7.721 0 15.112-2.077 21.539-5.967v264.898h-297.211zm63.419-78.551h43.501v42.876c0 11.993-9.758 21.75-21.751 21.75s-21.75-9.757-21.75-21.75zm63.5 0h43.501v42.876c0 11.993-9.758 21.75-21.751 21.75s-21.75-9.757-21.75-21.75zm63.501 0h43.501v42.876c0 11.993-9.758 21.75-21.751 21.75s-21.75-9.757-21.75-21.75zm63.501 0h37.24c1.679 0 3.244.651 4.409 1.833.876.889 1.44 2 1.64 3.203v39.954c-.43 4.994-2.573 9.635-6.15 13.24-4.094 4.124-9.559 6.396-15.389 6.396-11.993 0-21.75-9.757-21.75-21.75zm-225.637-48.611h240.643c15.596 0 28.284 12.606 28.284 28.103v1.204c-1.958-.459-3.984-.695-6.049-.695h-284.985c-2.127 0-4.196.254-6.178.734v-1.243c.001-15.497 12.689-28.103 28.285-28.103zm268.926 443.807c0 15.546-12.647 28.193-28.193 28.193h-240.824c-15.546 0-28.193-12.647-28.193-28.193v-31.639h297.211v31.639z"/></g></g></svg>