<svg id="Capa_1" enable-background="new 0 0 512 512" height="512" viewBox="0 0 512 512" width="512" xmlns="http://www.w3.org/2000/svg"><g><g><path d="m171.624 122.75h168.753v299.296h-168.753z" fill="#ffbdbc" transform="matrix(0 1 -1 0 528.398 16.398)"/></g><g fill="#020288"><path d="m502 387.94h-10.123v-321.388c0-19.662-15.996-35.658-35.657-35.658h-400.44c-19.662 0-35.657 15.996-35.657 35.658v321.388h-10.123c-5.523 0-10 4.477-10 10v37.406c0 25.232 20.527 45.76 45.759 45.76h420.481c25.232 0 45.759-20.528 45.759-45.76v-37.406c.001-5.523-4.476-10-9.999-10zm-30.123-321.388v37.037c0 15.244-12.402 27.646-27.646 27.646s-27.647-12.402-27.647-27.646v-52.694h39.635c8.634 0 15.658 7.023 15.658 15.657zm-75.293 37.037c0 15.244-12.402 27.646-27.646 27.646s-27.646-12.402-27.646-27.646v-52.694h55.292zm-75.292 0c0 15.244-12.402 27.646-27.646 27.646s-27.646-12.402-27.646-27.646v-52.694h55.292zm-75.292 0c0 15.244-12.402 27.646-27.646 27.646s-27.647-12.402-27.647-27.646v-52.694h55.293zm-75.293 0c0 15.244-12.402 27.646-27.646 27.646s-27.646-12.402-27.646-27.646v-52.694h55.292zm-130.584-37.037c0-8.634 7.024-15.658 15.657-15.658h39.635v52.694c0 15.244-12.402 27.646-27.646 27.646s-27.646-12.402-27.646-27.646zm0 75.821c7.801 5.577 17.347 8.862 27.646 8.862 15.291 0 28.922-7.241 37.646-18.473 8.724 11.232 22.355 18.473 37.646 18.473s28.922-7.241 37.646-18.473c8.724 11.232 22.355 18.473 37.647 18.473 15.291 0 28.922-7.241 37.646-18.473 8.724 11.232 22.355 18.473 37.646 18.473s28.922-7.241 37.646-18.473c8.724 11.232 22.355 18.473 37.646 18.473s28.922-7.241 37.646-18.473c8.724 11.232 22.355 18.473 37.647 18.473 10.299 0 19.845-3.285 27.646-8.862v245.567h-108.643c-5.523 0-10 4.477-10 10v12.523h-194.468v-12.523c0-5.523-4.477-10-10-10h-108.643zm451.877 292.973c0 14.204-11.556 25.76-25.759 25.76h-420.482c-14.203-.001-25.759-11.556-25.759-25.76v-27.406h118.766v12.523c0 5.523 4.477 10 10 10h214.468c5.523 0 10-4.477 10-10v-12.523h118.766z"/><path d="m174.661 308.7h.045c.002 0 14.983-.067 19.112-.067 13.847 0 25.113-11.266 25.113-25.113 0-6.966-2.851-13.277-7.447-17.831 1.539-3.077 2.406-6.547 2.406-10.216 0-12.638-10.282-22.919-22.919-22.919h-16.309c-5.523 0-10 4.477-10 10v56.146c0 2.66 1.06 5.21 2.945 7.087 1.873 1.866 4.41 2.913 7.054 2.913zm19.157-20.067c-1.755 0-5.463.012-9.157.026v-10.25c.1 0 .199-.001.298-.001h8.859c2.819 0 5.113 2.293 5.113 5.112 0 2.82-2.294 5.113-5.113 5.113zm-2.848-36.078c1.61 0 2.919 1.31 2.919 2.919s-1.31 2.919-2.919 2.919c-1.217 0-3.524.007-6.03.016h-.279v-5.854z"/><path d="m309.545 272.985-.063 25.691c-.014 5.523 4.453 10.011 9.976 10.024h.025c5.511 0 9.986-4.461 9.999-9.976l.063-25.724 16.175-24.848c3.013-4.628 1.703-10.823-2.925-13.836-4.629-3.012-10.824-1.704-13.836 2.925l-9.418 14.469-9.548-14.623c-3.02-4.624-9.217-5.926-13.84-2.906-4.624 3.02-5.925 9.216-2.906 13.84z"/><path d="m241.168 304.167c4.695 3 9.984 4.525 15.72 4.533h.045c4.914 0 9.536-1.073 13.742-3.191 10.371-5.224 16.083-13.875 16.083-24.361v-38.594c0-5.523-4.477-10-10-10s-10 4.477-10 10v38.594c0 1.474 0 3.94-5.079 6.498-1.408.709-2.96 1.054-4.745 1.054h-.019c-1.894-.002-3.522-.456-4.979-1.387-3.876-2.476-4.192-4.238-4.192-6.124v-38.634c0-5.523-4.477-10-10-10s-10 4.477-10 10v38.634c0 9.557 4.517 17.288 13.424 22.978z"/></g></g></svg>