<svg id="Capa_1" enable-background="new 0 0 512 512" height="512" viewBox="0 0 512 512" width="512" xmlns="http://www.w3.org/2000/svg"><g><g fill="#b2f0fb"><path d="m364.192 270.627h113.35v105.987h-113.35z"/><g><path d="m34.458 270.627h113.35v105.987h-113.35z"/><path d="m202.995 270.627h106.01v173.442h-106.01z"/></g></g><g><path d="m474.057 54.624h-436.114c-20.922 0-37.943 17.022-37.943 37.943v73.009c0 18.406 9.801 34.565 24.458 43.534v238.266c0 5.523 4.477 10 10 10h443.084c5.523 0 10-4.477 10-10v-238.266c14.657-8.969 24.458-25.128 24.458-43.534v-73.009c0-20.921-17.022-37.943-37.943-37.943zm-64.057 110.952c0 17.093-13.906 30.999-31 30.999s-31-13.906-31-30.999v-90.952h62zm-82 0c0 17.093-13.906 30.999-31 30.999s-31-13.906-31-30.999v-90.952h62zm-82 0c0 17.093-13.906 30.999-31 30.999s-31-13.906-31-30.999v-90.952h62zm-82 0c0 17.093-13.906 30.999-31 30.999s-31-13.906-31-30.999v-90.952h62zm-144-73.009c0-9.894 8.05-17.943 17.943-17.943h44.057v90.952c0 17.093-13.906 30.999-31 30.999s-31-13.906-31-30.999zm447.542 344.809h-423.084v-221.218c2.142.275 4.326.418 6.542.418 16.784 0 31.701-8.15 41-20.7 9.299 12.55 24.216 20.7 41 20.7s31.701-8.15 41-20.7c9.299 12.55 24.216 20.7 41 20.7s31.701-8.15 41-20.7c9.299 12.55 24.216 20.7 41 20.7s31.701-8.15 41-20.7c9.299 12.55 24.216 20.7 41 20.7s31.701-8.15 41-20.7c9.299 12.55 24.216 20.7 41 20.7 2.216 0 4.4-.142 6.542-.418zm24.458-271.8c0 17.093-13.906 30.999-31 30.999s-31-13.906-31-30.999v-90.952h44.057c9.894 0 17.943 8.049 17.943 17.943z" fill="#020288"/></g></g></svg>