<svg id="Capa_1" enable-background="new 0 0 512 512" height="512" viewBox="0 0 512 512" width="512" xmlns="http://www.w3.org/2000/svg"><g><g><path d="m347.205 320.015h-182.41c-13.991 0-25.334-11.342-25.334-25.334v-94.442c0-13.991 11.342-25.334 25.334-25.334h182.409c13.991 0 25.334 11.342 25.334 25.334v94.442c0 13.991-11.342 25.334-25.333 25.334z" fill="#fff59b"/></g><g fill="#020288"><path d="m266.775 215.804c-.035-.092-.071-.184-.108-.275-1.752-4.258-5.857-7.007-10.46-7.007h-.012c-4.608.005-8.713 2.764-10.458 7.028-.031.076-.061.152-.09.228l-21.732 57.06c-1.966 5.161.625 10.938 5.786 12.904 1.171.446 2.374.658 3.557.658 4.03 0 7.828-2.454 9.347-6.444l2.959-7.77h21.112l2.922 7.742c1.95 5.168 7.719 7.774 12.887 5.825 5.167-1.95 7.775-7.72 5.825-12.887zm-13.593 36.382 2.987-7.843 2.96 7.843z"/><path d="m336.485 210.288c-4.629-3.012-10.823-1.704-13.837 2.925l-9.967 15.311-10.101-15.469c-3.019-4.625-9.217-5.927-13.84-2.906-4.625 3.02-5.925 9.216-2.906 13.84l16.852 25.809-.065 26.575c-.014 5.523 4.453 10.011 9.976 10.025h.025c5.511 0 9.986-4.461 10-9.976l.065-26.609 16.723-25.689c3.013-4.628 1.704-10.823-2.925-13.836z"/><path d="m197.085 208.522h-16.115c-.084 0-.168.001-.251.003-.081.002-.162.005-.243.009-.001 0-.002 0-.002 0-2.206.108-4.223.931-5.827 2.241-.009.008-.019.015-.028.022-.046.038-.092.077-.137.116-.017.015-.035.029-.052.044-.025.021-.049.043-.073.065-.16.141-.317.288-.469.44-.095.095-.187.192-.277.291-.016.018-.033.035-.049.053-.03.033-.059.067-.089.1-.025.029-.051.057-.076.086-.024.028-.048.057-.072.085-.029.035-.059.07-.088.105-.018.022-.036.045-.054.067-.035.043-.069.086-.103.13-.011.014-.022.029-.033.044-.041.053-.082.107-.122.161-.003.004-.005.007-.008.011-1.089 1.477-1.781 3.265-1.919 5.206-.001.015-.002.031-.003.046-.004.064-.008.129-.011.194-.002.035-.003.07-.004.106-.002.046-.004.091-.005.137-.001.051-.002.102-.002.152 0 .029-.001.057-.001.086v57.875c0 5.523 4.477 10 10 10s10-4.477 10-10v-15.192c2.362-.011 4.63-.019 6.115-.019 14.696 0 26.652-11.813 26.652-26.333-.001-14.518-11.957-26.331-26.654-26.331zm0 32.665c-1.475 0-3.714.008-6.056.019-.011-2.458-.019-4.82-.019-6.351 0-1.32-.005-3.746-.011-6.333h6.086c3.606 0 6.652 2.9 6.652 6.333.001 3.432-3.046 6.332-6.652 6.332z"/><path d="m376.321 0h-240.642c-26.624 0-48.284 21.579-48.284 48.102v415.705c0 26.574 21.619 48.193 48.193 48.193h240.825c26.574 0 48.193-21.619 48.193-48.193v-415.705c-.001-26.523-21.661-48.102-48.285-48.102zm-268.926 48.102c0-15.496 12.688-28.102 28.284-28.102h240.643c15.596 0 28.284 12.606 28.284 28.102v364.066h-297.211zm297.21 415.705c0 15.545-12.647 28.193-28.193 28.193h-240.825c-15.545 0-28.193-12.647-28.193-28.193v-31.639h297.211z"/><path d="m249.333 472.084h13.333c5.523 0 10-4.477 10-10s-4.477-10-10-10h-13.333c-5.523 0-10 4.477-10 10s4.478 10 10 10z"/><path d="m208.511 59.553h94.979c5.523 0 10-4.477 10-10s-4.477-10-10-10h-94.979c-5.523 0-10 4.477-10 10s4.477 10 10 10z"/></g></g></svg>