<svg id="Capa_1" enable-background="new 0 0 512 512" height="512" viewBox="0 0 512 512" width="512" xmlns="http://www.w3.org/2000/svg"><g><g><path d="m422.692 511.998-35.655-113.668h-104.276l-26.761 41.356-26.761-41.356h-104.276l-35.655 113.668.002.002h333.381z" fill="#a4fcc4"/></g><g fill="#020288"><path d="m317.77 140.534h-15.956v-11.896c0-25.165-20.552-45.638-45.813-45.638-25.262 0-45.814 20.473-45.814 45.638v11.896h-15.957c-15.036 0-27.269 12.23-27.269 27.263v92.408c0 25.267 20.85 45.823 46.479 45.823h85.12c25.628 0 46.479-20.556 46.479-45.823v-92.408c-.001-15.033-12.233-27.263-27.269-27.263zm-87.584-11.897c0-14.137 11.58-25.638 25.814-25.638 14.233 0 25.813 11.502 25.813 25.638v11.896h-51.627zm94.852 131.568c0 14.239-11.878 25.823-26.479 25.823h-85.12c-14.6 0-26.479-11.584-26.479-25.823v-92.408c0-4.005 3.261-7.263 7.269-7.263h15.956v23.239c0 5.523 4.477 10 10 10s10-4.477 10-10v-23.239h51.627v23.239c0 5.523 4.478 10 10 10s10-4.477 10-10v-23.239h15.956c4.008 0 7.269 3.258 7.269 7.263v92.408z"/><path d="m394.321 57.181c-36.693-36.66-85.524-56.966-137.499-57.18-.275 0-.549-.001-.824-.001-52.051 0-101.033 20.248-138.004 57.068-36.92 36.768-57.252 85.53-57.251 137.303.001 83.49 53.358 157.513 132.773 184.198 9.085 3.053 16.885 9.056 21.963 16.904l32.125 49.645c1.843 2.848 5.003 4.567 8.396 4.567 3.392 0 6.553-1.719 8.395-4.567l32.119-49.635c5.074-7.841 12.945-13.871 22.163-16.979 79.3-26.739 132.579-100.737 132.579-184.135.001-51.784-20.22-100.505-56.935-137.188zm-82.034 302.372c-13.48 4.545-25.045 13.447-32.564 25.065l-23.723 36.661-23.73-36.67c-7.526-11.631-19.027-20.509-32.384-24.997-71.262-23.946-119.143-90.351-119.144-165.24-.001-46.415 18.241-90.144 51.364-123.132 33.198-33.062 77.167-51.24 123.895-51.24.244 0 .496 0 .739.001 96.229.395 174.517 78.616 174.517 174.368 0 74.807-47.81 141.19-118.97 165.184z"/></g></g></svg>