<svg id="Capa_1" enable-background="new 0 0 512 512" height="512" viewBox="0 0 512 512" width="512" xmlns="http://www.w3.org/2000/svg"><g><g><path d="m443.126 286.083-15.198-57.125c-.003-.012-.008-.034-.016-.064-.87-3.611-3.705-6.423-7.328-7.241-.218-.049-.375-.084-.449-.098l-130.625-28.853c-3.349 1.563-4.891 2.377-8.426 3.574-5.866 1.988-11.558 6.681-15.085 11.745l106.137 23.422-116.136 26.001-116.289-26.034 108.693-24.154c-3.505-5.038-10.507-10.834-16.34-12.804-3.57-1.205.061-1.448-3.319-3.025l-136.924 30.138-.014.003c-3.679.73-6.639 3.472-7.651 7.084-.046.165-.076.273-.084.306l-15.198 57.125c-.385 1.449-.515 2.969-.253 4.445.726 4.1 3.777 7.167 7.583 8.059l7.574 1.775v165.319c0 4.681 3.247 8.736 7.815 9.758l162.223 36.318c.719.161 1.452.242 2.185.242.732 0 1.466-.081 2.185-.242l162.223-36.318c4.568-1.022 7.815-5.077 7.815-9.758v-165.318l7.574-1.775c3.806-.893 6.857-3.96 7.583-8.059.26-1.477.131-2.997-.255-4.446zm-32.097-42.852 10.173 38.235-136.503 31.992-15.128-38.557zm-320.231 38.235 10.173-38.235 141.458 31.669-15.128 38.557zm317.425 176.207-142.223 31.841v-116.812c0-5.523-4.478-10-10-10s-10 4.477-10 10v116.812l-142.223-31.84v-152.624l127.388 29.855c.765.179 1.53.265 2.286.265 4.033 0 7.776-2.453 9.305-6.349l13.244-33.753 13.244 33.754c1.528 3.896 5.271 6.349 9.305 6.349.756 0 1.522-.086 2.286-.265l127.388-29.855z" fill="#020288"/></g><g><g><path d="m256.43.001c-56.344-.233-102.403 45.64-102.402 101.985 0 44.907 29.023 83.035 69.332 96.647 6.151 2.077 11.442 6.13 14.957 11.589l17.683 27.46 17.68-27.456c3.536-5.491 8.876-9.532 15.062-11.628 40.257-13.641 69.231-51.743 69.231-96.614-.001-56.181-45.423-101.752-101.543-101.983zm-.43 144.251c-22.408 0-40.572-18.167-40.572-40.577s18.165-40.577 40.572-40.577 40.572 18.167 40.572 40.577-18.164 40.577-40.572 40.577z" fill="#ffbdbc"/></g><path d="m256 154.252c-27.886 0-50.572-22.689-50.572-50.577s22.686-50.577 50.572-50.577 50.572 22.689 50.572 50.577-22.686 50.577-50.572 50.577zm0-81.154c-16.857 0-30.572 13.717-30.572 30.577s13.715 30.577 30.572 30.577 30.572-13.717 30.572-30.577c0-16.861-13.715-30.577-30.572-30.577z" fill="#020288"/></g></g></svg>