<svg id="Capa_1" enable-background="new 0 0 512 512" height="512" viewBox="0 0 512 512" width="512" xmlns="http://www.w3.org/2000/svg"><g><g><path d="m413.966 500.421h-319.698c-16.629 0-30.11-13.481-30.11-30.11v-18.053h383.685v14.287c0 18.709-15.167 33.876-33.877 33.876z" fill="#fff59b"/><g><g><path d="m162.877 175.122h180.125l34.381-125.808h-230.746" fill="#fff59b"/></g></g></g><g fill="#020288"><path d="m415.921 299.157h-319.842c-23.116 0-41.922 18.806-41.922 41.921v129.001c0 23.116 18.806 41.921 41.922 41.921h319.842c23.116 0 41.922-18.806 41.922-41.921v-129.001c0-23.116-18.806-41.921-41.922-41.921zm21.922 170.922c0 12.087-9.834 21.921-21.922 21.921h-319.842c-12.088 0-21.922-9.834-21.922-21.921v-129.001c0-12.087 9.834-21.921 21.922-21.921h319.842c12.088 0 21.922 9.834 21.922 21.921z"/><path d="m92.768 20h39.06l25.188 195.118c.495 3.839 3.126 6.934 6.605 8.156-3.27 5.676-5.142 12.256-5.142 19.266 0 21.329 17.333 38.683 38.639 38.683s38.639-17.353 38.639-38.683c0-6.779-1.751-13.156-4.824-18.702h47.302c-3.066 5.542-4.813 11.912-4.813 18.683 0 21.33 17.333 38.682 38.639 38.682s38.639-17.353 38.639-38.682c0-8.593-2.814-16.539-7.566-22.967 1.131-1.62 1.795-3.59 1.795-5.716 0-5.523-4.478-10-10-10h-159.204l-25.188-195.118c-.643-4.986-4.89-8.72-9.918-8.72h-47.851c-5.522 0-10 4.477-10 10s4.477 10 10 10zm104.348 241.222c-10.277 0-18.639-8.381-18.639-18.683s8.361-18.683 18.639-18.683c10.277 0 18.639 8.381 18.639 18.683s-8.361 18.683-18.639 18.683zm114.943-.02c-10.277 0-18.639-8.381-18.639-18.682 0-10.302 8.361-18.683 18.639-18.683 10.277 0 18.639 8.381 18.639 18.683-.001 10.301-8.362 18.682-18.639 18.682z"/><path d="m266.884 346.946c-.035-.092-.071-.184-.109-.275-1.768-4.296-5.908-7.069-10.553-7.069h-.014c-4.649.006-8.791 2.79-10.55 7.094-.03.074-.06.149-.088.224l-23.39 61.412c-1.966 5.161.624 10.939 5.785 12.904s10.938-.625 12.904-5.786l3.372-8.854h23.775l3.331 8.826c1.511 4.005 5.315 6.472 9.357 6.472 1.173 0 2.366-.209 3.529-.647 5.167-1.95 7.774-7.72 5.824-12.887zm-15.024 39.65 4.325-11.355 4.285 11.355z"/><path d="m342.208 341.379c-4.63-3.014-10.823-1.703-13.837 2.925l-11.365 17.459-11.511-17.628c-3.018-4.624-9.213-5.927-13.841-2.906-4.624 3.02-5.925 9.216-2.905 13.84l18.262 27.968-.071 28.829c-.014 5.522 4.452 10.011 9.976 10.024h.025c5.511 0 9.985-4.461 9.999-9.976l.071-28.863 18.122-27.837c3.013-4.627 1.703-10.822-2.925-13.835z"/><path d="m192.593 339.602h-17.345c-.084 0-.168.001-.251.003-.079.002-.158.005-.236.009-.003 0-.006 0-.01 0-2.657.13-5.042 1.297-6.757 3.106-.002.002-.004.005-.007.007-.054.058-.108.116-.162.175-.003.003-.006.007-.009.01-.052.057-.103.115-.153.174-.006.007-.011.013-.017.02-.049.057-.096.114-.144.172-.002.002-.004.005-.006.007-.051.062-.1.124-.149.187 0 0-.001.001-.001.001-1.131 1.455-1.868 3.231-2.053 5.169 0 .004-.001.008-.001.012-.007.074-.013.149-.019.224-.002.024-.003.048-.005.071-.004.056-.007.112-.01.169-.002.044-.003.088-.005.132-.001.038-.003.075-.004.113-.001.054-.002.108-.002.161 0 .026-.001.053-.001.079v62.289c0 5.523 4.478 10 10 10s10-4.477 10-10v-17.11c2.811-.013 5.586-.024 7.345-.024 15.396 0 27.922-12.372 27.922-27.578.002-15.207-12.524-27.578-27.92-27.578zm0 35.156c-1.746 0-4.487.01-7.277.023-.013-2.913-.023-5.795-.023-7.601 0-1.55-.007-4.516-.015-7.578h7.316c4.294 0 7.922 3.47 7.922 7.578-.001 4.108-3.629 7.578-7.923 7.578z"/></g></g></svg>