<svg id="Capa_1" enable-background="new 0 0 512 512" height="512" viewBox="0 0 512 512" width="512" xmlns="http://www.w3.org/2000/svg"><g><g><g><ellipse cx="176.202" cy="304.956" fill="#a4fcc4" rx="47.013" ry="46.919" transform="matrix(.195 -.981 .981 .195 -157.257 418.317)"/></g><g><g><path d="m121.317 367.517c14.165-8.757 17.544-17.817 26.379-25.196-11.201-8.587-18.422-22.12-18.416-37.347.006-15.319 7.324-28.928 18.647-37.515-9.03-7.434-12.433-16.515-26.771-25.236-24.656-14.997-56.195 2.835-56.206 31.779l-.011 27.21-.013 34.697c-.012 29.055 31.733 46.852 56.391 31.608z" fill="#a4fcc4"/></g><g><path d="m223.125 304.938c-.006 15.318-7.324 28.928-18.647 37.515 9.029 7.434 12.432 16.515 26.771 25.236 24.657 14.997 56.195-2.835 56.206-31.779l.01-27.21.013-34.697c.011-29.055-31.733-46.852-56.392-31.608-14.164 8.757-17.543 17.817-26.379 25.196 11.203 8.587 18.423 22.12 18.418 37.347z" fill="#a4fcc4"/></g></g></g><g fill="#020288"><path d="m471.973 79.743h-431.946c-22.071 0-40.027 17.956-40.027 40.028v272.459c0 22.071 17.956 40.028 40.027 40.028h431.945c22.071 0 40.027-17.957 40.027-40.028v-272.459c.001-22.072-17.955-40.028-40.026-40.028zm-431.946 20h431.945c11.043 0 20.027 8.984 20.027 20.028v8.782h-471.999v-8.782c0-11.044 8.984-20.028 20.027-20.028zm451.973 78.766h-472v-29.957h472zm-20.027 233.748h-431.946c-11.043 0-20.027-8.984-20.027-20.028v-193.72h472v193.72c0 11.044-8.984 20.028-20.027 20.028z"/><path d="m413.758 237.314c-5.091-2.134-10.952.266-13.087 5.36l-47.914 114.381c-2.134 5.094.266 10.953 5.36 13.087 1.262.529 2.571.779 3.859.779 3.909 0 7.622-2.307 9.228-6.139l47.914-114.381c2.134-5.094-.265-10.953-5.36-13.087z"/><path d="m383.979 265.854c0-19.105-13.983-34.648-31.171-34.648s-31.171 15.543-31.171 34.648 13.983 34.647 31.171 34.647 31.171-15.543 31.171-34.647zm-42.341 0c0-7.94 5.115-14.648 11.171-14.648s11.171 6.708 11.171 14.648-5.115 14.647-11.171 14.647-11.171-6.707-11.171-14.647z"/><path d="m417.519 309.411c-17.188 0-31.171 15.543-31.171 34.647s13.983 34.647 31.171 34.647 31.171-15.543 31.171-34.647-13.984-34.647-31.171-34.647zm0 49.295c-6.056 0-11.171-6.708-11.171-14.647 0-7.94 5.115-14.647 11.171-14.647s11.171 6.708 11.171 14.647-5.116 14.647-11.171 14.647z"/></g></g></svg>