<svg id="Capa_1" enable-background="new 0 0 512 512" height="512" viewBox="0 0 512 512" width="512" xmlns="http://www.w3.org/2000/svg"><g><g><g><path d="m264.211 233.179 17.44 121.747h34.033l17.44-121.747z" fill="#e2c4ff"/></g><g><path d="m379.7 233.179-17.44 121.747h45.047l27.379-121.747z" fill="#e2c4ff"/></g><g><path d="m217.635 233.179h-54.986l24.589 121.747h47.837z" fill="#e2c4ff"/></g></g><g fill="#020288"><path d="m490.471 186.139c-1.9-2.241-4.689-3.533-7.628-3.533h-366.239l-12.382-61.305c-.942-4.665-5.043-8.02-9.802-8.02h-65.263c-5.523 0-10 4.477-10 10s4.477 10 10 10h57.081l60.777 300.919c-9.371 8.131-15.308 20.13-15.308 33.49 0 24.433 19.854 44.31 44.257 44.31s44.258-19.877 44.258-44.31c0-8.97-2.676-17.326-7.271-24.31h138.663c-4.595 6.984-7.271 15.34-7.271 24.31 0 24.433 19.854 44.31 44.258 44.31s44.258-19.877 44.258-44.31c0-9.107-2.759-17.581-7.484-24.629 4.305-1.116 7.484-5.027 7.484-9.681 0-5.523-4.478-10-10-10h-257.626l-3.611-17.881h253.597c24.604 0 45.384-17.618 49.408-41.891l28.081-169.367c.481-2.898-.338-5.861-2.237-8.102zm-290.249 281.551c0 13.405-10.882 24.31-24.258 24.31s-24.257-10.905-24.257-24.31 10.882-24.31 24.257-24.31c13.376 0 24.258 10.905 24.258 24.31zm188.379 24.31c-13.376 0-24.258-10.905-24.258-24.31s10.882-24.31 24.258-24.31 24.258 10.905 24.258 24.31c-.001 13.405-10.882 24.31-24.258 24.31zm56.296-131.663c-2.417 14.58-14.898 25.162-29.678 25.162h-257.636l-36.939-182.893h350.405z"/><path d="m290.677 149.86c1.89 2.51 4.849 3.987 7.99 3.987 3.142 0 6.101-1.477 7.99-3.987l58.731-78.036c2.279-3.028 2.65-7.086.958-10.478s-5.157-5.535-8.948-5.535h-22.703v-45.811c0-5.523-4.478-10-10-10h-52.055c-5.522 0-10 4.477-10 10v45.812h-22.703c-3.79 0-7.255 2.144-8.948 5.535-1.692 3.392-1.321 7.449.958 10.478zm-18.037-74.048c5.522 0 10-4.477 10-10v-45.812h32.056v45.812c0 5.523 4.478 10 10 10h12.661l-38.689 51.406-38.689-51.406z"/></g></g></svg>