<svg id="Capa_1" enable-background="new 0 0 512 512" height="512" viewBox="0 0 512 512" width="512" xmlns="http://www.w3.org/2000/svg"><g><g><g><path d="m264.904 169.828 18.913 132.028h36.907l18.913-132.028z" fill="#fff59b"/></g><g><path d="m390.146 169.828-18.913 132.028h48.852l29.691-132.028z" fill="#fff59b"/></g><g><path d="m214.395 169.828h-59.63l26.666 132.028h51.877z" fill="#fff59b"/></g></g><g><path d="m509.627 119.361c-1.9-2.241-4.689-3.533-7.627-3.533h-397.859l-13.564-67.16c-.942-4.665-5.042-8.02-9.802-8.02h-70.775c-5.523 0-10 4.477-10 10s4.477 10 10 10h62.592l66.145 327.494c-10.2 8.666-16.683 21.59-16.683 36.001 0 26.03 21.151 47.208 47.15 47.208s47.151-21.177 47.151-47.208c0-10.124-3.2-19.513-8.639-27.208h153.571c-5.439 7.695-8.639 17.084-8.639 27.208 0 26.03 21.151 47.208 47.15 47.208s47.151-21.177 47.151-47.208c0-10.16-3.223-19.581-8.698-27.292 4.908-.638 8.698-4.834 8.698-9.916 0-5.523-4.477-10-10-10h-280.072l-4.258-21.08h276.045c26.268 0 48.451-18.809 52.748-44.722l30.453-183.67c.481-2.898-.338-5.861-2.238-8.102zm-313.272 304.783c0 15.003-12.18 27.208-27.151 27.208s-27.15-12.205-27.15-27.208c0-15.002 12.18-27.208 27.15-27.208 14.972 0 27.151 12.206 27.151 27.208zm203.444 27.208c-14.971 0-27.15-12.205-27.15-27.208 0-15.002 12.18-27.208 27.15-27.208 14.971 0 27.151 12.206 27.151 27.208s-12.18 27.208-27.151 27.208zm61.883-143.489c-2.689 16.221-16.576 27.994-33.018 27.994h-280.084l-40.4-200.028h382.025z" fill="#020288"/></g></g></svg>