<svg id="Capa_1" enable-background="new 0 0 512 512" height="512" viewBox="0 0 512 512" width="512" xmlns="http://www.w3.org/2000/svg"><g><g fill="#b2f0fb"><path d="m121.161 291.208h269.678v49.494h-269.678z"/><path d="m121.161 396.399h269.678v49.494h-269.678z"/></g><g><path d="m441.157 172.226-175.157-72.196v-25.852c0-5.523-4.477-10-10-10-12.177 0-22.083-9.909-22.083-22.089s9.906-22.089 22.083-22.089 22.083 9.909 22.083 22.089c0 5.523 4.477 10 10 10s10-4.477 10-10c0-23.208-18.878-42.089-42.083-42.089s-42.083 18.881-42.083 42.089c0 19.763 13.689 36.388 32.083 40.888v17.053l-175.157 72.196c-3.745 1.544-6.189 5.195-6.189 9.246v55.022c0 5.523 4.477 10 10 10h36.506v255.506c0 5.523 4.477 10 10 10h269.679c5.523 0 10-4.477 10-10v-255.506h36.506c5.523 0 10-4.477 10-10v-55.022c.001-4.051-2.443-7.702-6.188-9.246zm-60.318 319.774h-249.678v-280.16h249.679v280.16zm46.507-265.506h-26.506v-24.654c0-5.523-4.477-10-10-10h-269.679c-5.523 0-10 4.477-10 10v24.654h-26.507v-38.328l171.346-70.626 171.346 70.626z" fill="#020288"/></g></g></svg>