<svg id="Capa_1" enable-background="new 0 0 512 512" height="512" viewBox="0 0 512 512" width="512" xmlns="http://www.w3.org/2000/svg"><g><g><path d="m355.883 107.417h-67.05v-20.721c.001-47.804-39.349-86.696-87.716-86.696s-87.717 38.892-87.717 86.696v20.721h-67.05c-5.523 0-10 4.477-10 10v330.033c0 35.593 29.283 64.55 65.276 64.55h177.208c5.523 0 10-4.477 10-10s-4.477-10-10-10h-177.208c-24.965 0-45.276-19.985-45.276-44.55v-320.033h57.05v64.071c0 5.523 4.477 10 10 10s10-4.477 10-10v-64.071h135.434v64.071c0 5.523 4.477 10 10 10s10-4.477 10-10v-64.071h57.05v131.328c0 5.523 4.477 10 10 10s10-4.477 10-10v-141.328c-.001-5.523-4.478-10-10.001-10zm-222.483 0v-20.721c0-36.777 30.377-66.696 67.717-66.696s67.717 29.919 67.717 66.696v20.721z" fill="#020288"/></g><g><g><g><path d="m236.117 247.416v210.034c0 30.127 24.748 54.55 55.276 54.55h128.982c30.528 0 55.276-24.423 55.276-54.55v-210.034z" fill="#e2c4ff"/></g></g><path d="m355.883 382.74c-35.389 0-64.181-28.792-64.181-64.181v-27.351c0-5.523 4.477-10 10-10s10 4.477 10 10v27.351c0 24.361 19.819 44.181 44.181 44.181s44.181-19.819 44.181-44.181v-27.351c0-5.523 4.477-10 10-10s10 4.477 10 10v27.351c.001 35.389-28.791 64.181-64.181 64.181z" fill="#020288"/></g></g></svg>