<svg id="Capa_1" enable-background="new 0 0 512 512" height="512" viewBox="0 0 512 512" width="512" xmlns="http://www.w3.org/2000/svg"><g><g><g><path d="m82.294 153.162c-.874 3.399-2.6 6.411-5.133 8.952-2.528 2.536-5.523 4.267-8.903 5.142l-14.988 3.882.033 169.68 14.937 3.907c6.899 1.805 12.305 7.232 14.105 14.162l3.89 14.971h169.689c-65.056-.042-117.782-52.792-117.782-117.858 0-65.091 52.767-117.858 117.858-117.858h-169.845z" fill="#a4fcc4"/></g><g><path d="m458.697 171.183-14.936-3.907c-6.9-1.805-12.306-7.232-14.105-14.162l-3.889-14.972h-169.767c65.091 0 117.858 52.767 117.858 117.858 0 65.066-52.726 117.816-117.782 117.858h169.768l3.861-15.02c.874-3.399 2.6-6.411 5.133-8.952 2.528-2.537 5.523-4.267 8.902-5.142l14.989-3.881z" fill="#a4fcc4"/></g></g><g fill="#020288"><path d="m511.921 119.096c-.007-18.928-15.378-34.333-34.269-34.341l-443.398-.047h-.014c-9.153 0-17.756 3.573-24.224 10.061-6.462 6.483-10.019 15.101-10.016 24.267l.079 273.868c.007 18.928 15.378 34.333 34.269 34.341l443.397.047h.013c9.154 0 17.757-3.573 24.226-10.061 6.463-6.483 10.02-15.102 10.017-24.268zm-24.102 284.015c-2.688 2.697-6.261 4.181-10.061 4.181h-.008l-443.397-.047c-7.867-.003-14.27-6.439-14.273-14.347l-.08-273.868c-.001-3.834 1.483-7.435 4.181-10.141 2.688-2.696 6.261-4.181 10.063-4.181h.005l443.398.047c7.867.003 14.271 6.439 14.273 14.347l.08 273.868c.001 3.834-1.483 7.435-4.181 10.141z"/><path d="m256 128.142c-70.501 0-127.857 57.357-127.857 127.858s57.356 127.858 127.857 127.858 127.857-57.357 127.857-127.858-57.356-127.858-127.857-127.858zm0 235.716c-59.473 0-107.857-48.385-107.857-107.858s48.384-107.858 107.857-107.858 107.857 48.385 107.857 107.858-48.384 107.858-107.857 107.858z"/><path d="m267.811 247.706c-1.056-.373-2.071-.735-3.048-1.085v-24.051c1.932.872 3.306 1.997 4.069 3.085 3.173 4.521 9.41 5.613 13.93 2.441 4.521-3.172 5.614-9.409 2.441-13.93-4.025-5.736-11.162-10.571-20.44-12.394v-.528c0-5.523-4.478-10-10-10s-10 4.477-10 10v1.235c-.94.231-1.889.49-2.849.779-11.233 3.384-19.71 14.276-20.616 26.488-.897 12.105 5.525 22.613 17.18 28.108 1.428.673 3.577 1.575 6.285 2.644v29.522c-3.31-1.244-6.261-3.075-8.281-5.583-3.466-4.302-9.761-4.979-14.061-1.515-4.301 3.464-4.979 9.759-1.515 14.06 6.144 7.628 15.057 11.861 23.858 13.8.015 5.51 4.487 9.971 10 9.971 5.266 0 9.582-4.071 9.971-9.238 15.588-2.491 26.564-12.657 28.332-26.576 2.024-15.949-8.361-31.261-25.256-37.233zm-26.568-16.48c.205-2.761 1.581-5.417 3.52-7.136v14.372c-2.557-1.842-3.74-4.267-3.52-7.236zm31.982 51.195c-.525 4.13-3.534 7.144-8.462 8.64v-22.871c6.56 3.676 9.043 9.652 8.462 14.231z"/></g></g></svg>