<svg id="Capa_1" enable-background="new 0 0 512 512" height="512" viewBox="0 0 512 512" width="512" xmlns="http://www.w3.org/2000/svg"><g><g><path d="m256 0c-141.385 0-256 114.615-256 256s114.615 256 256 256 256-114.615 256-256-114.615-256-256-256zm0 432.827c-97.503 0-176.827-79.324-176.827-176.827s79.324-176.827 176.827-176.827 176.827 79.324 176.827 176.827-79.324 176.827-176.827 176.827z" fill="#fff59b"/></g><g fill="#020288"><path d="m468.12 246h-25.558c-2.332-43.993-19.952-83.998-47.633-114.785l18.134-18.134c3.905-3.905 3.905-10.237 0-14.143-3.905-3.905-10.237-3.905-14.143 0l-18.134 18.134c-30.788-27.681-70.793-45.302-114.786-47.634v-25.558c0-5.523-4.477-10-10-10s-10 4.477-10 10v25.558c-43.993 2.331-83.998 19.952-114.785 47.633l-18.135-18.133c-3.905-3.905-10.237-3.905-14.143 0-3.905 3.905-3.905 10.237 0 14.143l18.134 18.134c-27.68 30.787-45.301 70.792-47.633 114.785h-25.558c-5.523 0-10 4.477-10 10s4.477 10 10 10h25.558c2.332 43.993 19.952 83.998 47.633 114.785l-18.133 18.135c-3.905 3.905-3.905 10.237 0 14.143 1.953 1.953 4.512 2.929 7.071 2.929s5.119-.976 7.071-2.929l18.134-18.134c30.788 27.681 70.793 45.302 114.785 47.633v25.558c0 5.523 4.477 10 10 10s10-4.477 10-10v-25.558c43.993-2.331 83.998-19.952 114.785-47.633l18.134 18.134c1.953 1.953 4.512 2.929 7.071 2.929s5.119-.976 7.071-2.929c3.905-3.905 3.905-10.237 0-14.143l-18.134-18.134c27.681-30.788 45.302-70.793 47.633-114.785h25.558c5.523 0 10-4.477 10-10 .003-5.524-4.474-10.001-9.997-10.001zm-212.12 176.827c-91.988 0-166.827-74.838-166.827-166.827s74.839-166.827 166.827-166.827 166.827 74.839 166.827 166.827-74.839 166.827-166.827 166.827z"/><path d="m272.028 249.03c-2.441-.863-4.733-1.683-6.876-2.459v-41.615c6.407 1.408 10.817 4.478 12.837 7.357 3.173 4.521 9.409 5.615 13.93 2.441 4.521-3.172 5.614-9.409 2.441-13.93-5.54-7.894-15.79-14.424-29.208-16.206v-4.071c0-5.523-4.477-10-10-10s-10 4.477-10 10v4.879c-2.212.444-4.471 1.008-6.774 1.701-14.132 4.257-24.802 18.009-25.946 33.442-1.126 15.184 6.986 28.391 21.7 35.329 2.348 1.107 6.151 2.676 11.02 4.559v49.129c-7.305-1.802-14.221-5.218-18.554-10.597-3.464-4.301-9.759-4.979-14.061-1.515-4.301 3.464-4.98 9.76-1.515 14.061 8.661 10.753 21.655 16.304 34.129 18.488v3.18c0 5.523 4.477 10 10 10s10-4.477 10-10v-2.396c26.236-2.686 37.607-19.295 39.485-34.085 2.59-20.378-10.82-39.991-32.608-47.692zm-29.366-11.22c-9.147-4.313-10.642-10.951-10.285-15.76.537-7.246 5.487-13.878 11.77-15.771.337-.102.672-.199 1.005-.292v32.923c-1.052-.445-1.881-.813-2.49-1.1zm42.135 56.394c-1.122 8.833-8.227 14.734-19.645 16.452v-42.844c.07.025.14.049.21.074 14.977 5.294 20.573 17.353 19.435 26.318z"/></g></g></svg>