<svg id="Capa_1" enable-background="new 0 0 512 512" height="512" viewBox="0 0 512 512" width="512" xmlns="http://www.w3.org/2000/svg"><g><g><path d="m238.574 215.577h-103.785c-44.547 0-80.789-36.241-80.789-80.788s36.242-80.789 80.789-80.789h242.423c44.546 0 80.788 36.242 80.788 80.789s-36.242 80.789-80.789 80.789h-100.454" fill="#fff59b"/></g><g fill="#020288"><path d="m512 134.789c0-74.323-60.466-134.789-134.789-134.789h-242.422c-74.323 0-134.789 60.466-134.789 134.789s60.466 134.789 134.789 134.789h91.561l.074 81.344h-32.523c-20.002 0-36.275 16.273-36.275 36.275s16.273 36.274 36.275 36.274h25.182c.225 0 .411.008.562.02.621 1.662 1.078 5.553 1.392 8.23 1.058 9.028 2.507 21.393 12.147 31.539 9.123 9.603 23.537 14.938 43.892 16.207v22.533c0 5.523 4.478 10 10 10h64.179c5.522 0 10-4.477 10-10v-21.815c38.888-5.836 58.586-22.259 58.586-48.892v-96.079c0-.572-.015-1.143-.045-1.7-.876-16.599-14.374-29.96-30.742-30.421-8.71-.241-16.693 3.029-22.579 8.549-5.899-5.53-13.553-8.563-21.663-8.563-8.325 0-15.979 3.276-21.677 8.634-5.695-5.357-13.348-8.634-21.67-8.634-4.163 0-8.16.82-11.827 2.309-.002-14.424-.004-26.198-.006-35.812h87.582c74.32.002 134.786-60.465 134.786-134.787zm-222.168 199.062c.442-6.04 5.552-10.77 11.63-10.77 6.072 0 11.177 4.731 11.619 10.77.384 5.225 4.734 9.269 9.974 9.269h.15c5.239 0 9.59-4.043 9.974-9.269.442-6.04 5.552-10.77 11.63-10.77 3.115 0 6.051 1.217 8.246 3.407 1.98 1.984 3.181 4.599 3.383 7.362.383 5.226 4.734 9.27 9.974 9.27h.15c5.24 0 9.593-4.046 9.974-9.272.452-6.206 5.729-10.94 11.96-10.761 6.023.169 10.998 5.215 11.326 11.488 0 .005.001.01.001.015.011.205.016.415.016.626v96.079c0 6.853 0 25.057-49.602 30.121-5.103.521-8.984 4.819-8.984 9.948v20.636h-44.179v-22.236c0-5.523-4.478-10-10-10-19.658 0-32.912-3.458-39.392-10.28-5.051-5.316-5.892-12.493-6.783-20.092-.655-5.587-1.273-10.865-3.711-15.566-2.451-4.724-7.581-10.356-18.106-10.356h-25.182c-8.974 0-16.275-7.301-16.275-16.274 0-8.974 7.301-16.275 16.275-16.275h42.532c2.654 0 5.199-1.055 7.074-2.932 1.875-1.878 2.928-4.423 2.926-7.077l-.12-133.514c.001-.03.003-.06.003-.089.223-6.242 5.416-11.197 11.654-11.197.111 0 .225.001.336.005 5.959.167 10.888 5.101 11.305 11.281.015 4.46.025 70.251.028 105.131 0 .339.018.678.052 1.016.018.168.038.334.063.514.478 5.11 4.774 9.061 9.956 9.061h.15c5.239-.001 9.589-4.044 9.973-9.269zm-.238-107.292c-.854-16.605-14.352-29.973-30.724-30.434-17.172-.482-31.725 12.99-32.528 30.117-.021.275-.031.555-.031.84l.02 22.496h-91.543c-63.294 0-114.788-51.495-114.788-114.789 0-63.295 51.494-114.789 114.789-114.789h242.422c63.295 0 114.789 51.494 114.789 114.789 0 63.294-51.494 114.789-114.789 114.789h-87.588c-.008-22.629-.018-22.816-.029-23.019z"/><path d="m211.484 129.851c1.539-3.077 2.405-6.547 2.405-10.215 0-12.638-10.282-22.92-22.919-22.92h-16.309c-5.523 0-10 4.477-10 10v56.146c0 2.66 1.06 5.21 2.945 7.087 1.874 1.866 4.411 2.913 7.055 2.913h.045c.002 0 14.983-.067 19.112-.067 13.847 0 25.113-11.266 25.113-25.113 0-6.965-2.851-13.278-7.447-17.831zm-20.514-13.135c1.61 0 2.919 1.31 2.919 2.92 0 1.609-1.31 2.919-2.919 2.919-1.195 0-3.439.007-5.891.015h-.418v-5.854zm2.848 36.079c-1.755 0-5.463.012-9.157.026v-10.25c.145-.001.29-.001.434-.001h8.723c2.819 0 5.113 2.293 5.113 5.113 0 2.818-2.294 5.112-5.113 5.112z"/><path d="m342.795 98.478c-4.63-3.013-10.823-1.702-13.837 2.925l-9.419 14.469-9.548-14.623c-3.019-4.623-9.215-5.927-13.84-2.906-4.625 3.02-5.926 9.216-2.906 13.84l16.299 24.963-.062 25.692c-.014 5.522 4.453 10.011 9.976 10.024h.025c5.511 0 9.985-4.461 9.999-9.976l.062-25.725 16.175-24.847c3.013-4.628 1.704-10.823-2.924-13.836z"/><path d="m276.758 96.716c-5.522 0-10 4.477-10 10v38.594c0 1.474 0 3.94-5.082 6.499-1.406.709-2.958 1.053-4.742 1.053h-.019c-1.894-.002-3.522-.456-4.979-1.387-3.877-2.477-4.192-4.239-4.192-6.124v-38.635c0-5.523-4.477-10-10-10s-10 4.477-10 10v38.635c0 9.556 4.517 17.287 13.424 22.979 4.695 2.999 9.984 4.525 15.72 4.533h.045c4.915 0 9.539-1.074 13.74-3.191 10.373-5.223 16.085-13.874 16.085-24.361v-38.594c0-5.524-4.478-10.001-10-10.001z"/></g></g></svg>