<svg id="Capa_1" enable-background="new 0 0 512 512" height="512" viewBox="0 0 512 512" width="512" xmlns="http://www.w3.org/2000/svg"><g><g><path d="m143.601 114.089h224.798v398.697h-224.798z" fill="#b2f0fb" transform="matrix(0 1 -1 0 569.437 57.437)"/></g><g fill="#020288"><path d="m472.012 142.311h-432.024c-22.05 0-39.988 17.939-39.988 39.989v262.275c0 22.05 17.938 39.988 39.988 39.988h432.023c22.05 0 39.988-17.939 39.988-39.988v-262.275c.001-22.05-17.938-39.989-39.987-39.989zm19.988 302.264c0 11.022-8.967 19.988-19.988 19.988h-432.024c-11.021 0-19.988-8.967-19.988-19.988v-262.275c0-11.021 8.967-19.988 19.988-19.988h432.023c11.022 0 19.988 8.967 19.988 19.988v262.275z"/><path d="m173.731 123.823 82.269-73.015 82.269 73.015c1.904 1.69 4.273 2.521 6.634 2.521 2.759 0 5.507-1.136 7.482-3.362 3.666-4.13 3.29-10.451-.841-14.117l-88.906-78.907c-3.787-3.361-9.489-3.361-13.276 0l-88.906 78.907c-4.131 3.666-4.507 9.986-.841 14.117 3.665 4.13 9.986 4.507 14.116.841z"/><path d="m374.795 273.356c-5.522.053-9.956 4.574-9.903 10.096l.276 28.543-23.596-34.206c-2.486-3.603-7.026-5.17-11.205-3.87-4.179 1.302-7.026 5.17-7.026 9.548v60.05c0 5.523 4.477 10 10 10s10-4.477 10-10v-27.943l22.331 32.371c2.795 4.043 7.685 5.818 12.168 4.419 4.625-1.443 7.614-5.712 7.613-10.972l-.561-58.135c-.055-5.52-4.578-9.939-10.097-9.901z"/><path d="m304.644 293.905c5.523 0 10-4.477 10-10s-4.477-10-10-10h-25.092c-5.523 0-10 4.477-10 10v59.613c0 5.523 4.477 10 10 10h25.092c5.523 0 10-4.477 10-10s-4.477-10-10-10h-15.092v-9.806h13.242c5.523 0 10-4.477 10-10s-4.477-10-10-10h-13.242v-9.807z"/><path d="m238.109 273.356h-16.734c-.084 0-.168.001-.252.003-.081.002-.162.005-.243.009-.001 0-.002 0-.003 0-2.48.121-4.723 1.146-6.406 2.753-.008.008-.016.016-.024.024-.051.049-.102.098-.152.148-.001.001-.002.002-.003.003-.013.013-.025.026-.038.039-.043.044-.086.088-.129.132-.016.016-.031.033-.046.05-.042.044-.083.089-.125.135-.009.01-.017.02-.026.029-.046.052-.093.104-.138.157-.006.008-.013.015-.019.022-.048.056-.095.112-.141.168-.004.004-.007.009-.011.013-1.262 1.548-2.069 3.48-2.219 5.594-.001.013-.001.025-.002.038-.005.067-.009.134-.012.202-.001.033-.003.066-.004.1-.002.047-.004.095-.005.142-.001.05-.001.1-.002.15 0 .029-.001.058-.001.087v60.162c0 5.523 4.477 10 10 10s10-4.477 10-10v-16.185c2.59-.012 5.111-.021 6.734-.021 15.049 0 27.292-12.102 27.292-26.978.001-14.874-12.242-26.976-27.291-26.976zm0 33.955c-1.612 0-4.102.009-6.67.021-.012-2.695-.021-5.325-.021-6.999 0-1.439-.006-4.143-.013-6.978h6.705c3.953 0 7.292 3.195 7.292 6.978-.001 3.783-3.34 6.978-7.293 6.978z"/><path d="m166.596 273.356c-22.083 0-40.049 17.98-40.049 40.081s17.966 40.081 40.049 40.081 40.049-17.98 40.049-40.081-17.966-40.081-40.049-40.081zm0 60.162c-11.055 0-20.049-9.008-20.049-20.081s8.994-20.081 20.049-20.081 20.049 9.008 20.049 20.081-8.994 20.081-20.049 20.081z"/></g></g></svg>