<svg id="Capa_1" enable-background="new 0 0 512 512" height="512" viewBox="0 0 512 512" width="512" xmlns="http://www.w3.org/2000/svg"><g><g><path d="m143.601 114.089h224.798v398.697h-224.798z" fill="#e2c4ff" transform="matrix(0 1 -1 0 569.437 57.437)"/></g><g><g fill="#020288"><path d="m472.012 142.312h-432.024c-22.05 0-39.988 17.938-39.988 39.988v262.275c0 22.05 17.938 39.988 39.988 39.988h432.023c22.05 0 39.988-17.939 39.988-39.988v-262.275c.001-22.05-17.938-39.988-39.987-39.988zm19.988 302.263c0 11.022-8.967 19.988-19.988 19.988h-432.024c-11.021 0-19.988-8.967-19.988-19.988v-262.275c0-11.021 8.967-19.988 19.988-19.988h432.023c11.022 0 19.988 8.967 19.988 19.988v262.275z"/><path d="m167.097 126.344c2.36 0 4.73-.83 6.634-2.521l82.269-73.015 82.269 73.015c4.131 3.667 10.45 3.289 14.117-.841 3.666-4.13 3.289-10.451-.842-14.117l-88.906-78.907c-3.787-3.362-9.489-3.361-13.276 0l-88.906 78.907c-4.131 3.666-4.507 9.986-.841 14.117 1.975 2.226 4.722 3.362 7.482 3.362z"/><path d="m181.186 335.551c-3.796.022-7.783.038-11.239.045v-50.808c0-5.523-4.477-10-10-10s-10 4.477-10 10v51.434c-.206-2.577-1.404-5.074-3.542-6.867-4.234-3.549-10.54-2.994-14.088 1.236-.456.544-.946 1.05-1.456 1.505-2.612 2.326-5.989 3.505-10.038 3.505-11.252 0-20.407-9.154-20.407-20.407 0-11.252 9.154-20.407 20.407-20.407 4.091 0 8.034 1.203 11.403 3.479 4.576 3.092 10.793 1.888 13.884-2.688 3.092-4.576 1.888-10.793-2.688-13.884-6.688-4.518-14.503-6.907-22.599-6.907-22.28 0-40.407 18.126-40.407 40.407s18.126 40.407 40.407 40.407c8.974 0 17.044-2.963 23.34-8.571 1.232-1.097 2.402-2.304 3.479-3.587 1.385-1.651 2.145-3.618 2.306-5.615v7.721c0 4.871 3.509 9.033 8.309 9.856.715.123 1.167.2 8.058.2 3.287 0 8.039-.018 14.983-.056 5.523-.031 9.975-4.533 9.944-10.056-.031-5.52-4.485-9.983-10.056-9.942z"/><path d="m355.601 295.344c5.522 0 10-4.477 10-10s-4.478-10-10-10h-25.391c-5.522 0-10 4.477-10 10v60.258c0 5.523 4.478 10 10 10h25.391c5.522 0 10-4.477 10-10s-4.478-10-10-10h-15.391v-10.129h13.518c5.523 0 10-4.477 10-10s-4.477-10-10-10h-13.518v-10.129z"/><path d="m397.752 276.588h-16.714c-2.655 0-5.202 1.056-7.078 2.935s-2.927 4.428-2.922 7.083c0 0 .043 22.696.043 29.423 0 8.206.076 29.608.076 29.608.01 2.652 1.072 5.193 2.955 7.061 1.874 1.86 4.406 2.903 7.045 2.903h.038c.506-.002 12.44-.048 17.221-.131 19.219-.336 33.168-16.897 33.168-39.376 0-23.629-13.596-39.506-33.832-39.506zm.315 58.886c-1.654.029-4.263.053-6.943.073-.021-6.693-.043-15.058-.043-19.517 0-3.751-.014-12.46-.025-19.442h6.696c12.835 0 13.832 14.931 13.832 19.507 0 9.528-4.18 19.216-13.517 19.379z"/><path d="m299.071 306.292c-7.036-2.595-13.617-5.412-16.069-6.48-.381-.404-.526-.933-.435-1.576.188-1.306 1.338-2.37 3.156-2.917 7.384-2.227 14.468 3.383 14.538 3.44l.732.367c3.966 1.989 8.779.996 11.633-2.4 3.761-4.474 2.679-11.245-2.29-14.323-8.907-5.518-19.98-9.368-30.383-6.235-9.299 2.801-15.883 10.168-17.184 19.225-1.227 8.556 2.483 16.788 9.687 21.483.441.288.905.541 1.387.755.355.159 8.801 3.918 18.306 7.423 3.222 1.188 6.842 3.37 6.442 5.608-.355 1.991-3.228 4.938-8.263 4.938-5.267 0-10.316-2.053-13.576-5.507-3.67-3.888-9.722-4.658-13.883-1.3-4.513 3.642-4.983 10.27-1.143 14.508 7.083 7.816 17.508 12.3 28.602 12.3 13.98 0 25.735-9.009 27.951-21.422 1.686-9.434-2.475-21.714-19.208-27.887z"/><path d="m222.484 274.789c-22.28 0-40.407 18.126-40.407 40.407s18.127 40.407 40.407 40.407 40.407-18.126 40.407-40.407-18.127-40.407-40.407-40.407zm0 60.813c-11.252 0-20.407-9.154-20.407-20.407 0-11.252 9.154-20.407 20.407-20.407 11.252 0 20.407 9.154 20.407 20.407s-9.155 20.407-20.407 20.407z"/></g></g></g></svg>