<svg id="Capa_1" enable-background="new 0 0 512 512" height="512" viewBox="0 0 512 512" width="512" xmlns="http://www.w3.org/2000/svg"><g><g><path d="m485.491 139.429h-32.221v216.634c0 14.641-11.868 26.509-26.509 26.509h-358.031v37.526c0 14.641 11.868 26.509 26.509 26.509h390.253c14.641 0 26.509-11.869 26.509-26.509v-254.16c-.001-14.641-11.869-26.509-26.51-26.509z" fill="#a4fcc4"/></g><g fill="#020288"><path d="m426.762 65.393h-390.253c-20.131 0-36.509 16.378-36.509 36.509v254.16c0 20.131 16.378 36.509 36.509 36.509h390.253c20.131 0 36.509-16.378 36.509-36.509v-254.16c-.001-20.131-16.378-36.509-36.509-36.509zm-390.253 20h390.253c9.103 0 16.509 7.406 16.509 16.509v31.653h-423.271v-31.653c0-9.103 7.406-16.509 16.509-16.509zm406.761 108.203h-423.27v-40.041h423.27zm-16.508 178.975h-390.253c-9.103 0-16.509-7.406-16.509-16.509v-142.466h423.27v142.466c0 9.104-7.405 16.509-16.508 16.509z"/><path d="m107.948 277.758h-48.651c-5.523 0-10 4.477-10 10v48.149c0 5.523 4.477 10 10 10h48.651c5.523 0 10-4.477 10-10v-48.149c0-5.522-4.477-10-10-10zm-10 48.15h-28.651v-28.149h28.651z"/><path d="m203.009 277.758h-48.651c-5.523 0-10 4.477-10 10v48.149c0 5.523 4.477 10 10 10h48.651c5.523 0 10-4.477 10-10v-48.149c0-5.522-4.477-10-10-10zm-10 48.15h-28.651v-28.149h28.651z"/><path d="m299.586 277.758h-48.651c-5.523 0-10 4.477-10 10v48.149c0 5.523 4.477 10 10 10h48.651c5.523 0 10-4.477 10-10v-48.149c0-5.522-4.477-10-10-10zm-10 48.15h-28.651v-28.149h28.651z"/><path d="m403.974 277.758h-48.651c-5.523 0-10 4.477-10 10v48.149c0 5.523 4.477 10 10 10h48.651c5.523 0 10-4.477 10-10v-48.149c0-5.522-4.477-10-10-10zm-10 48.15h-28.651v-28.149h28.651z"/></g></g></svg>