<svg id="Capa_1" enable-background="new 0 0 512 512" height="512" viewBox="0 0 512 512" width="512" xmlns="http://www.w3.org/2000/svg"><g><g fill="#020288"><path d="m435.767 87.416h-45.275v-.721c-.001-47.803-39.35-86.695-87.717-86.695-13.293 0-25.905 2.938-37.206 8.191-11.302-5.253-23.914-8.191-37.207-8.191-48.367 0-87.717 38.892-87.717 86.696v.721h-64.412c-5.523 0-10 4.477-10 10v350.033c0 35.593 29.283 64.55 65.276 64.55h248.982c35.993 0 65.275-28.957 65.275-64.55v-350.034c.001-5.522-4.477-10-9.999-10zm-132.992-67.416c37.339 0 67.717 29.919 67.717 66.696v.721h-54.412v-.721c0-25.733-11.402-48.883-29.475-64.774 5.183-1.256 10.599-1.922 16.17-1.922zm-37.207 10.992c18.368 11.941 30.511 32.452 30.511 55.703v.721h-61.022v-.721c0-23.251 12.143-43.761 30.511-55.703zm-104.923 55.704c0-36.776 30.378-66.696 67.717-66.696 5.571 0 10.987.666 16.17 1.922-18.073 15.892-29.475 39.042-29.475 64.774v.721h-54.412zm-74.412 360.754v-340.034h54.412v64.071c0 5.523 4.477 10 10 10s10-4.477 10-10v-64.071h135.434v64.071c0 5.523 4.478 10 10 10 5.523 0 10-4.477 10-10v-64.071h54.412v384.584h-238.982c-24.965 0-45.276-19.985-45.276-44.55zm339.534 0c0 21.186-15.105 38.964-35.275 43.455v-383.489h35.275z"/><path d="m306.079 443.383h-155.434c-5.523 0-10 4.477-10 10s4.477 10 10 10h155.434c5.523 0 10-4.477 10-10s-4.477-10-10-10z"/></g><g><path d="m269.592 236.701c-18.536 0-30.271 11.07-36.851 20.357-1.707 2.41-3.16 4.826-4.379 7.1-1.219-2.274-2.671-4.69-4.379-7.1-6.58-9.287-18.315-20.357-36.851-20.357-13.179 0-25.216 5.422-33.893 15.267-8.276 9.391-12.835 21.969-12.835 35.416 0 14.638 5.715 28.252 17.985 42.845 10.966 13.042 68.761 55.012 69.972 55.012s59.006-41.969 69.972-55.012c12.27-14.593 17.985-28.207 17.985-42.845 0-13.447-4.558-26.025-12.835-35.417-8.675-9.845-20.712-15.266-33.891-15.266z" fill="#ffbdbc"/></g></g></svg>