<svg version="1.1" viewBox="0.0 0.0 960.0 540.0" fill="none" stroke="none" stroke-linecap="square" stroke-miterlimit="10" xmlns:xlink="http://www.w3.org/1999/xlink" xmlns="http://www.w3.org/2000/svg"><clipPath id="g13a08cb9ef8_0_0.0"><path d="m0 0l960.0 0l0 540.0l-960.0 0l0 -540.0z" clip-rule="nonzero"/></clipPath><g clip-path="url(#g13a08cb9ef8_0_0.0)"><path fill="#000000" fill-opacity="0.0" d="m0 0l960.0 0l0 540.0l-960.0 0z" fill-rule="evenodd"/><path fill="#000000" fill-opacity="0.0" d="m401.19116 194.27296c-19.770447 0 -35.795715 14.78624 -35.795715 33.02629c0 18.241852 16.025269 33.028076 35.795715 33.028076l157.6582 0c19.770447 0 35.795715 -14.786224 35.795715 -33.028076c0 -18.240051 -16.025269 -33.02629 -35.795715 -33.02629z" fill-rule="evenodd"/><path stroke="#343434" stroke-width="1.0" stroke-linejoin="round" stroke-linecap="butt" d="m401.19116 194.27296c-19.770447 0 -35.795715 14.78624 -35.795715 33.02629c0 18.241852 16.025269 33.028076 35.795715 33.028076l157.6582 0c19.770447 0 35.795715 -14.786224 35.795715 -33.028076c0 -18.240051 -16.025269 -33.02629 -35.795715 -33.02629z" fill-rule="evenodd"/><path fill="#000000" d="m397.44904 235.01703l1.59375 0.234375q0.109375 0.75 0.5625 1.078125q0.609375 0.453125 1.671875 0.453125q1.140625 0 1.75 -0.453125q0.625 -0.453125 0.84375 -1.265625q0.125 -0.5 0.109375 -2.109375q-1.0625 1.265625 -2.671875 1.265625q-2.0 0 -3.09375 -1.4375q-1.09375 -1.4375 -1.09375 -3.453125q0 -1.390625 0.5 -2.5625q0.515625 -1.171875 1.453125 -1.796875q0.953125 -0.640625 2.25 -0.640625q1.703125 0 2.8125 1.375l0 -1.15625l1.515625 0l0 8.359375q0 2.265625 -0.46875 3.203125q-0.453125 0.9375 -1.453125 1.484375q-0.984375 0.546875 -2.453125 0.546875q-1.71875 0 -2.796875 -0.78125q-1.0625 -0.765625 -1.03125 -2.34375zm1.359375 -5.8125q0 1.90625 0.75 2.78125q0.765625 0.875 1.90625 0.875q1.125 0 1.890625 -0.859375q0.765625 -0.875 0.765625 -2.734375q0 -1.78125 -0.796875 -2.671875q-0.78125 -0.90625 -1.890625 -0.90625q-1.09375 0 -1.859375 0.890625q-0.765625 0.875 -0.765625 2.625zm9.313232 5.015625l0 -9.671875l1.46875 0l0 1.46875q0.5625 -1.03125 1.03125 -1.359375q0.484375 -0.328125 1.0625 -0.328125q0.828125 0 1.6875 0.53125l-0.5625 1.515625q-0.609375 -0.359375 -1.203125 -0.359375q-0.546875 0 -0.96875 0.328125q-0.421875 0.328125 -0.609375 0.890625q-0.28125 0.875 -0.28125 1.921875l0 5.0625l-1.625 0zm12.540802 -1.1875q-0.921875 0.765625 -1.765625 1.09375q-0.828125 0.3125 -1.796875 0.3125q-1.59375 0 -2.453125 -0.78125q-0.859375 -0.78125 -0.859375 -1.984375q0 -0.71875 0.328125 -1.296875q0.328125 -0.59375 0.84375 -0.9375q0.53125 -0.359375 1.1875 -0.546875q0.46875 -0.125 1.453125 -0.25q1.984375 -0.234375 2.921875 -0.5625q0.015625 -0.34375 0.015625 -0.421875q0 -1.0 -0.46875 -1.421875q-0.625 -0.546875 -1.875 -0.546875q-1.15625 0 -1.703125 0.40625q-0.546875 0.40625 -0.8125 1.421875l-1.609375 -0.21875q0.21875 -1.015625 0.71875 -1.640625q0.5 -0.640625 1.453125 -0.984375q0.953125 -0.34375 2.1875 -0.34375q1.25 0 2.015625 0.296875q0.78125 0.28125 1.140625 0.734375q0.375 0.4375 0.515625 1.109375q0.078125 0.421875 0.078125 1.515625l0 2.1875q0 2.28125 0.109375 2.890625q0.109375 0.59375 0.40625 1.15625l-1.703125 0q-0.265625 -0.515625 -0.328125 -1.1875zm-0.140625 -3.671875q-0.890625 0.375 -2.671875 0.625q-1.015625 0.140625 -1.4375 0.328125q-0.421875 0.1875 -0.65625 0.53125q-0.21875 0.34375 -0.21875 0.78125q0 0.65625 0.5 1.09375q0.5 0.4375 1.453125 0.4375q0.9375 0 1.671875 -0.40625q0.75 -0.421875 1.09375 -1.140625q0.265625 -0.5625 0.265625 -1.640625l0 -0.609375zm4.203827 8.5625l0 -13.375l1.484375 0l0 1.25q0.53125 -0.734375 1.1875 -1.09375q0.671875 -0.375 1.625 -0.375q1.234375 0 2.171875 0.640625q0.953125 0.625 1.4375 1.796875q0.484375 1.15625 0.484375 2.546875q0 1.484375 -0.53125 2.671875q-0.53125 1.1875 -1.546875 1.828125q-1.015625 0.625 -2.140625 0.625q-0.8125 0 -1.46875 -0.34375q-0.65625 -0.34375 -1.0625 -0.875l0 4.703125l-1.640625 0zm1.484375 -8.484375q0 1.859375 0.75 2.765625q0.765625 0.890625 1.828125 0.890625q1.09375 0 1.875 -0.921875q0.78125 -0.9375 0.78125 -2.875q0 -1.84375 -0.765625 -2.765625q-0.75 -0.921875 -1.8125 -0.921875q-1.046875 0 -1.859375 0.984375q-0.796875 0.96875 -0.796875 2.84375zm8.891357 4.78125l0 -13.359375l1.640625 0l0 4.796875q1.140625 -1.328125 2.890625 -1.328125q1.078125 0 1.859375 0.421875q0.796875 0.421875 1.140625 1.171875q0.34375 0.75 0.34375 2.171875l0 6.125l-1.640625 0l0 -6.125q0 -1.234375 -0.53125 -1.796875q-0.53125 -0.5625 -1.515625 -0.5625q-0.71875 0 -1.359375 0.390625q-0.640625 0.375 -0.921875 1.015625q-0.265625 0.640625 -0.265625 1.78125l0 5.296875l-1.640625 0zm16.531952 3.703125l0 -4.734375q-0.375 0.546875 -1.0625 0.90625q-0.6875 0.34375 -1.46875 0.34375q-1.71875 0 -2.96875 -1.375q-1.234375 -1.375 -1.234375 -3.765625q0 -1.46875 0.5 -2.625q0.515625 -1.15625 1.46875 -1.75q0.96875 -0.59375 2.109375 -0.59375q1.796875 0 2.828125 1.515625l0 -1.296875l1.46875 0l0 13.375l-1.640625 0zm-5.046875 -8.5625q0 1.859375 0.78125 2.796875q0.78125 0.9375 1.875 0.9375q1.046875 0 1.796875 -0.890625q0.765625 -0.890625 0.765625 -2.703125q0 -1.9375 -0.796875 -2.90625q-0.796875 -0.96875 -1.875 -0.96875q-1.0625 0 -1.8125 0.90625q-0.734375 0.90625 -0.734375 2.828125zm9.219482 4.859375l0 -13.359375l1.640625 0l0 13.359375l-1.640625 0zm15.6875 -1.1875q-0.921875 0.765625 -1.765625 1.09375q-0.828125 0.3125 -1.796875 0.3125q-1.59375 0 -2.453125 -0.78125q-0.859375 -0.78125 -0.859375 -1.984375q0 -0.71875 0.328125 -1.296875q0.328125 -0.59375 0.84375 -0.9375q0.53125 -0.359375 1.1875 -0.546875q0.46875 -0.125 1.453125 -0.25q1.984375 -0.234375 2.921875 -0.5625q0.015625 -0.34375 0.015625 -0.421875q0 -1.0 -0.46875 -1.421875q-0.625 -0.546875 -1.875 -0.546875q-1.15625 0 -1.703125 0.40625q-0.546875 0.40625 -0.8125 1.421875l-1.609375 -0.21875q0.21875 -1.015625 0.71875 -1.640625q0.5 -0.640625 1.453125 -0.984375q0.953125 -0.34375 2.1875 -0.34375q1.25 0 2.015625 0.296875q0.78125 0.28125 1.140625 0.734375q0.375 0.4375 0.515625 1.109375q0.078125 0.421875 0.078125 1.515625l0 2.1875q0 2.28125 0.109375 2.890625q0.109375 0.59375 0.40625 1.15625l-1.703125 0q-0.265625 -0.515625 -0.328125 -1.1875zm-0.140625 -3.671875q-0.890625 0.375 -2.671875 0.625q-1.015625 0.140625 -1.4375 0.328125q-0.421875 0.1875 -0.65625 0.53125q-0.21875 0.34375 -0.21875 0.78125q0 0.65625 0.5 1.09375q0.5 0.4375 1.453125 0.4375q0.9375 0 1.671875 -0.40625q0.75 -0.421875 1.09375 -1.140625q0.265625 -0.5625 0.265625 -1.640625l0 -0.609375zm4.203827 8.5625l0 -13.375l1.484375 0l0 1.25q0.53125 -0.734375 1.1875 -1.09375q0.671875 -0.375 1.625 -0.375q1.234375 0 2.171875 0.640625q0.953125 0.625 1.4375 1.796875q0.484375 1.15625 0.484375 2.546875q0 1.484375 -0.53125 2.671875q-0.53125 1.1875 -1.546875 1.828125q-1.015625 0.625 -2.140625 0.625q-0.8125 0 -1.46875 -0.34375q-0.65625 -0.34375 -1.0625 -0.875l0 4.703125l-1.640625 0zm1.484375 -8.484375q0 1.859375 0.75 2.765625q0.765625 0.890625 1.828125 0.890625q1.09375 0 1.875 -0.921875q0.78125 -0.9375 0.78125 -2.875q0 -1.84375 -0.765625 -2.765625q-0.75 -0.921875 -1.8125 -0.921875q-1.046875 0 -1.859375 0.984375q-0.796875 0.96875 -0.796875 2.84375zm8.891357 -6.6875l0 -1.890625l1.640625 0l0 1.890625l-1.640625 0zm0 11.46875l0 -9.671875l1.640625 0l0 9.671875l-1.640625 0zm9.015625 0.796875l1.59375 0.234375q0.109375 0.75 0.5625 1.078125q0.609375 0.453125 1.671875 0.453125q1.140625 0 1.75 -0.453125q0.625 -0.453125 0.84375 -1.265625q0.125 -0.5 0.109375 -2.109375q-1.0625 1.265625 -2.671875 1.265625q-2.0 0 -3.09375 -1.4375q-1.09375 -1.4375 -1.09375 -3.453125q0 -1.390625 0.5 -2.5625q0.515625 -1.171875 1.453125 -1.796875q0.953125 -0.640625 2.25 -0.640625q1.703125 0 2.8125 1.375l0 -1.15625l1.515625 0l0 8.359375q0 2.265625 -0.46875 3.203125q-0.453125 0.9375 -1.453125 1.484375q-0.984375 0.546875 -2.453125 0.546875q-1.71875 0 -2.796875 -0.78125q-1.0625 -0.765625 -1.03125 -2.34375zm1.359375 -5.8125q0 1.90625 0.75 2.78125q0.765625 0.875 1.90625 0.875q1.125 0 1.890625 -0.859375q0.765625 -0.875 0.765625 -2.734375q0 -1.78125 -0.796875 -2.671875q-0.78125 -0.90625 -1.890625 -0.90625q-1.09375 0 -1.859375 0.890625q-0.765625 0.875 -0.765625 2.625zm15.641327 3.828125q-0.921875 0.765625 -1.765625 1.09375q-0.828125 0.3125 -1.796875 0.3125q-1.59375 0 -2.453125 -0.78125q-0.859375 -0.78125 -0.859375 -1.984375q0 -0.71875 0.328125 -1.296875q0.328125 -0.59375 0.84375 -0.9375q0.53125 -0.359375 1.1875 -0.546875q0.46875 -0.125 1.453125 -0.25q1.984375 -0.234375 2.921875 -0.5625q0.015625 -0.34375 0.015625 -0.421875q0 -1.0 -0.46875 -1.421875q-0.625 -0.546875 -1.875 -0.546875q-1.15625 0 -1.703125 0.40625q-0.546875 0.40625 -0.8125 1.421875l-1.609375 -0.21875q0.21875 -1.015625 0.71875 -1.640625q0.5 -0.640625 1.453125 -0.984375q0.953125 -0.34375 2.1875 -0.34375q1.25 0 2.015625 0.296875q0.7812805 0.28125 1.1406555 0.734375q0.375 0.4375 0.515625 1.109375q0.078125 0.421875 0.078125 1.515625l0 2.1875q0 2.28125 0.109375 2.890625q0.109375 0.59375 0.40625 1.15625l-1.703125 0q-0.265625 -0.515625 -0.32815552 -1.1875zm-0.140625 -3.671875q-0.890625 0.375 -2.671875 0.625q-1.015625 0.140625 -1.4375 0.328125q-0.421875 0.1875 -0.65625 0.53125q-0.21875 0.34375 -0.21875 0.78125q0 0.65625 0.5 1.09375q0.5 0.4375 1.453125 0.4375q0.9375 0 1.671875 -0.40625q0.75 -0.421875 1.09375 -1.140625q0.265625 -0.5625 0.265625 -1.640625l0 -0.609375zm7.781952 3.390625l0.234375 1.453125q-0.6875 0.140625 -1.234375 0.140625q-0.890625 0 -1.390625 -0.28125q-0.484375 -0.28125 -0.6875 -0.734375q-0.203125 -0.46875 -0.203125 -1.9375l0 -5.578125l-1.203125 0l0 -1.265625l1.203125 0l0 -2.390625l1.625 -0.984375l0 3.375l1.65625 0l0 1.265625l-1.65625 0l0 5.671875q0 0.6875 0.078125 0.890625q0.09375 0.203125 0.28125 0.328125q0.203125 0.109375 0.578125 0.109375q0.265625 0 0.71875 -0.0625zm8.230225 -1.640625l1.6875 0.203125q-0.40625 1.484375 -1.484375 2.3125q-1.078125 0.8125 -2.765625 0.8125q-2.125 0 -3.375 -1.296875q-1.234375 -1.3125 -1.234375 -3.671875q0 -2.453125 1.25 -3.796875q1.265625 -1.34375 3.265625 -1.34375q1.9375 0 3.15625 1.328125q1.234375 1.3125 1.234375 3.703125q0 0.15625 0 0.4375l-7.21875 0q0.09375 1.59375 0.90625 2.453125q0.8125 0.84375 2.015625 0.84375q0.90625 0 1.546875 -0.46875q0.640625 -0.484375 1.015625 -1.515625zm-5.390625 -2.65625l5.40625 0q-0.109375 -1.21875 -0.625 -1.828125q-0.78125 -0.953125 -2.03125 -0.953125q-1.125 0 -1.90625 0.765625q-0.765625 0.75 -0.84375 2.015625zm10.922546 5.765625l-2.96875 -9.671875l1.703125 0l1.53125 5.578125l0.578125 2.078125q0.046875 -0.15625 0.5 -2.0l1.546875 -5.65625l1.6875 0l1.4375 5.609375l0.484375 1.84375l0.5625 -1.859375l1.65625 -5.59375l1.59375 0l-3.03125 9.671875l-1.703125 0l-1.53125 -5.796875l-0.375 -1.640625l-1.953125 7.4375l-1.71875 0zm18.004211 -1.1875q-0.921875 0.765625 -1.765625 1.09375q-0.828125 0.3125 -1.796875 0.3125q-1.59375 0 -2.453125 -0.78125q-0.859375 -0.78125 -0.859375 -1.984375q0 -0.71875 0.328125 -1.296875q0.328125 -0.59375 0.84375 -0.9375q0.53125 -0.359375 1.1875 -0.546875q0.46875 -0.125 1.453125 -0.25q1.984375 -0.234375 2.921875 -0.5625q0.015625 -0.34375 0.015625 -0.421875q0 -1.0 -0.46875 -1.421875q-0.625 -0.546875 -1.875 -0.546875q-1.15625 0 -1.703125 0.40625q-0.546875 0.40625 -0.8125 1.421875l-1.609375 -0.21875q0.21875 -1.015625 0.71875 -1.640625q0.5 -0.640625 1.453125 -0.984375q0.953125 -0.34375 2.1875 -0.34375q1.25 0 2.015625 0.296875q0.78125 0.28125 1.140625 0.734375q0.375 0.4375 0.515625 1.109375q0.078125 0.421875 0.078125 1.515625l0 2.1875q0 2.28125 0.109375 2.890625q0.109375 0.59375 0.40625 1.15625l-1.703125 0q-0.265625 -0.515625 -0.328125 -1.1875zm-0.140625 -3.671875q-0.890625 0.375 -2.671875 0.625q-1.015625 0.140625 -1.4375 0.328125q-0.421875 0.1875 -0.65625 0.53125q-0.21875 0.34375 -0.21875 0.78125q0 0.65625 0.5 1.09375q0.5 0.4375 1.453125 0.4375q0.9375 0 1.671875 -0.40625q0.75 -0.421875 1.09375 -1.140625q0.265625 -0.5625 0.265625 -1.640625l0 -0.609375zm4.1257324 8.578125l-0.1875 -1.53125q0.546875 0.140625 0.9375 0.140625q0.546875 0 0.875 -0.1875q0.328125 -0.171875 0.546875 -0.5q0.15625 -0.25 0.5 -1.21875q0.046875 -0.140625 0.140625 -0.40625l-3.671875 -9.6875l1.765625 0l2.015625 5.59375q0.390625 1.078125 0.703125 2.25q0.28125 -1.125 0.671875 -2.203125l2.078125 -5.640625l1.640625 0l-3.6875 9.828125q-0.59375 1.609375 -0.921875 2.203125q-0.4375 0.8125 -1.0 1.1875q-0.5625 0.375 -1.34375 0.375q-0.484375 0 -1.0625 -0.203125z" fill-rule="nonzero"/><path fill="#96979b" d="m519.18854 181.5094l0 2.6443481l42.375427 0c25.785583 0 46.7677 19.356232 46.7677 43.149963c0 23.795547 -20.982117 43.151764 -46.7677 43.151764l-42.375427 0l0 2.6443787l42.375427 0c27.367065 0 49.631714 -20.545029 49.631714 -45.796143c0 -25.247498 -22.264648 -45.79431 -49.631714 -45.79431z" fill-rule="evenodd"/><path stroke="#343434" stroke-width="1.0" stroke-linejoin="round" stroke-linecap="butt" d="m519.18854 181.5094l0 2.6443481l42.375427 0c25.785583 0 46.7677 19.356232 46.7677 43.149963c0 23.795547 -20.982117 43.151764 -46.7677 43.151764l-42.375427 0l0 2.6443787l42.375427 0c27.367065 0 49.631714 -20.545029 49.631714 -45.796143c0 -25.247498 -22.264648 -45.79431 -49.631714 -45.79431z" fill-rule="evenodd"/><path fill="#96979b" d="m398.43127 181.5094c-27.367096 0 -49.631714 20.546814 -49.631714 45.79431c0 25.251114 22.264618 45.796143 49.631714 45.796143l42.37146 0l0 -2.6480103l-42.37146 0c-25.78363 0 -46.76776 -19.352585 -46.76776 -43.148132c0 -23.793732 20.98413 -43.15178 46.76776 -43.15178l42.37146 0l0 -2.6425323z" fill-rule="evenodd"/><path stroke="#343434" stroke-width="1.0" stroke-linejoin="round" stroke-linecap="butt" d="m398.43127 181.5094c-27.367096 0 -49.631714 20.546814 -49.631714 45.79431c0 25.251114 22.264618 45.796143 49.631714 45.796143l42.37146 0l0 -2.6480103l-42.37146 0c-25.78363 0 -46.76776 -19.352585 -46.76776 -43.148132c0 -23.793732 20.98413 -43.15178 46.76776 -43.15178l42.37146 0l0 -2.6425323z" fill-rule="evenodd"/><path fill="#9fa0a4" d="m352.85233 149.3492c-0.26553345 0 -0.47601318 0.19419861 -0.47601318 0.43920898c0 7.210724 6.3573914 13.074753 14.168396 13.074753l79.491 0c6.469513 0 11.733246 4.85495 11.733246 10.826065l0 9.152695c0 0.24501038 0.21047974 0.43920898 0.47601318 0.43920898c0.26358032 0 0.47601318 -0.19419861 0.4701233 -0.43920898l0 -9.152695c0 -6.4575195 -5.6905823 -11.708115 -12.689209 -11.708115l-79.48312 0c-7.287781 0 -13.2144165 -5.4720154 -13.2144165 -12.192703c0 -0.24501038 -0.21243286 -0.43920898 -0.47601318 -0.43920898z" fill-rule="evenodd"/><path stroke="#343434" stroke-width="1.0" stroke-linejoin="round" stroke-linecap="butt" d="m352.85233 149.3492c-0.26553345 0 -0.47601318 0.19419861 -0.47601318 0.43920898c0 7.210724 6.3573914 13.074753 14.168396 13.074753l79.491 0c6.469513 0 11.733246 4.85495 11.733246 10.826065l0 9.152695c0 0.24501038 0.21047974 0.43920898 0.47601318 0.43920898c0.26358032 0 0.47601318 -0.19419861 0.4701233 -0.43920898l0 -9.152695c0 -6.4575195 -5.6905823 -11.708115 -12.689209 -11.708115l-79.48312 0c-7.287781 0 -13.2144165 -5.4720154 -13.2144165 -12.192703c0 -0.24501038 -0.21243286 -0.43920898 -0.47601318 -0.43920898z" fill-rule="evenodd"/><path fill="#435d74" d="m352.8553 146.73117c-1.833252 0 -3.3164062 1.368454 -3.3164062 3.0617828c0 1.6915131 1.4831543 3.059967 3.3164062 3.059967c1.833252 -0.005432129 3.3183594 -1.3720856 3.3183594 -3.059967c0 -1.6933289 -1.4851074 -3.0617828 -3.3183594 -3.0617828z" fill-rule="evenodd"/><path stroke="#343434" stroke-width="1.0" stroke-linejoin="round" stroke-linecap="butt" d="m352.8553 146.73117c-1.833252 0 -3.3164062 1.368454 -3.3164062 3.0617828c0 1.6915131 1.4831543 3.059967 3.3164062 3.059967c1.833252 -0.005432129 3.3183594 -1.3720856 3.3183594 -3.059967c0 -1.6933289 -1.4851074 -3.0617828 -3.3183594 -3.0617828z" fill-rule="evenodd"/><path fill="#435d74" d="m458.20966 179.77312c-1.833252 0 -3.3164062 1.3666382 -3.3164062 3.0581512c0 1.6915131 1.4831543 3.0599823 3.3164062 3.0599823c1.833252 0 3.3144226 -1.3720856 3.3144226 -3.0599823c0 -1.6915131 -1.4811707 -3.0581512 -3.3144226 -3.0581512z" fill-rule="evenodd"/><path stroke="#343434" stroke-width="1.0" stroke-linejoin="round" stroke-linecap="butt" d="m458.20966 179.77312c-1.833252 0 -3.3164062 1.3666382 -3.3164062 3.0581512c0 1.6915131 1.4831543 3.0599823 3.3164062 3.0599823c1.833252 0 3.3144226 -1.3720856 3.3144226 -3.0599823c0 -1.6915131 -1.4811707 -3.0581512 -3.3144226 -3.0581512z" fill-rule="evenodd"/><path fill="#000000" fill-opacity="0.0" d="m320.13577 67.56075c-8.688293 0 -15.730225 6.495636 -15.730225 14.508553l0 43.554695c0 8.014732 7.041931 14.512169 15.730225 14.512169l65.47208 0c8.684387 0 15.726288 -6.4974365 15.726288 -14.512169l0 -43.554695c0.001953125 -8.012917 -7.0419006 -14.508553 -15.726288 -14.508553z" fill-rule="evenodd"/><path stroke="#00899d" stroke-width="1.0" stroke-linejoin="round" stroke-linecap="butt" d="m320.13577 67.56075c-8.688293 0 -15.730225 6.495636 -15.730225 14.508553l0 43.554695c0 8.014732 7.041931 14.512169 15.730225 14.512169l65.47208 0c8.684387 0 15.726288 -6.4974365 15.726288 -14.512169l0 -43.554695c0.001953125 -8.012917 -7.0419006 -14.508553 -15.726288 -14.508553z" fill-rule="evenodd"/><path fill="#00899d" d="m320.78784 107.877846l1.625 -0.25q0.125 0.96875 0.75 1.5q0.625 0.515625 1.75 0.515625q1.125 0 1.671875 -0.453125q0.546875 -0.46875 0.546875 -1.09375q0 -0.546875 -0.484375 -0.875q-0.328125 -0.21875 -1.671875 -0.546875q-1.8125 -0.46875 -2.515625 -0.796875q-0.6875 -0.328125 -1.046875 -0.90625q-0.359375 -0.59375 -0.359375 -1.3125q0 -0.640625 0.296875 -1.1875q0.296875 -0.5625 0.8125 -0.921875q0.375 -0.28125 1.03125 -0.46875q0.671875 -0.203125 1.421875 -0.203125q1.140625 0 2.0 0.328125q0.859375 0.328125 1.265625 0.890625q0.421875 0.5625 0.578125 1.5l-1.609375 0.21875q-0.109375 -0.75 -0.640625 -1.171875q-0.515625 -0.421875 -1.46875 -0.421875q-1.140625 0 -1.625 0.375q-0.46875 0.375 -0.46875 0.875q0 0.3125 0.1875 0.578125q0.203125 0.265625 0.640625 0.4375q0.234375 0.09375 1.4375 0.421875q1.75 0.453125 2.4375 0.75q0.6875 0.296875 1.078125 0.859375q0.390625 0.5625 0.390625 1.40625q0 0.828125 -0.484375 1.546875q-0.46875 0.71875 -1.375 1.125q-0.90625 0.390625 -2.046875 0.390625q-1.875 0 -2.875 -0.78125q-0.984375 -0.78125 -1.25 -2.328125zm16.296875 -0.65625l1.609375 0.21875q-0.265625 1.65625 -1.359375 2.609375q-1.078125 0.9375 -2.671875 0.9375q-1.984375 0 -3.1875 -1.296875q-1.203125 -1.296875 -1.203125 -3.71875q0 -1.578125 0.515625 -2.75q0.515625 -1.171875 1.578125 -1.75q1.0625 -0.59375 2.3125 -0.59375q1.578125 0 2.578125 0.796875q1.0 0.796875 1.28125 2.265625l-1.59375 0.234375q-0.234375 -0.96875 -0.8125 -1.453125q-0.578125 -0.5 -1.390625 -0.5q-1.234375 0 -2.015625 0.890625q-0.78125 0.890625 -0.78125 2.8125q0 1.953125 0.75 2.84375q0.75 0.875 1.953125 0.875q0.96875 0 1.609375 -0.59375q0.65625 -0.59375 0.828125 -1.828125zm3.015625 3.546875l0 -13.359375l1.640625 0l0 4.796875q1.140625 -1.328125 2.890625 -1.328125q1.078125 0 1.859375 0.421875q0.796875 0.421875 1.140625 1.171875q0.34375 0.75 0.34375 2.171875l0 6.125l-1.640625 0l0 -6.125q0 -1.234375 -0.53125 -1.796875q-0.53125 -0.5625 -1.515625 -0.5625q-0.71875 0 -1.359375 0.390625q-0.640625 0.375 -0.921875 1.015625q-0.265625 0.640625 -0.265625 1.78125l0 5.296875l-1.640625 0zm17.000702 -3.109375l1.6875 0.203125q-0.40625 1.484375 -1.484375 2.3125q-1.078125 0.8125 -2.765625 0.8125q-2.125 0 -3.375 -1.296875q-1.234375 -1.3125 -1.234375 -3.671875q0 -2.453125 1.25 -3.796875q1.265625 -1.34375 3.265625 -1.34375q1.9375 0 3.15625 1.328125q1.234375 1.3125 1.234375 3.703125q0 0.15625 0 0.4375l-7.21875 0q0.09375 1.59375 0.90625 2.453125q0.8125 0.84375 2.015625 0.84375q0.90625 0 1.546875 -0.46875q0.640625 -0.484375 1.015625 -1.515625zm-5.390625 -2.65625l5.40625 0q-0.109375 -1.21875 -0.625 -1.828125q-0.78125 -0.953125 -2.03125 -0.953125q-1.125 0 -1.90625 0.765625q-0.765625 0.75 -0.84375 2.015625zm9.141357 5.765625l0 -9.671875l1.46875 0l0 1.359375q0.453125 -0.71875 1.203125 -1.140625q0.765625 -0.4375 1.71875 -0.4375q1.078125 0 1.765625 0.453125q0.6875 0.4375 0.96875 1.234375q1.15625 -1.6875 2.984375 -1.6875q1.453125 0 2.21875 0.796875q0.78125 0.796875 0.78125 2.453125l0 6.640625l-1.640625 0l0 -6.09375q0 -0.984375 -0.15625 -1.40625q-0.15625 -0.4375 -0.578125 -0.703125q-0.421875 -0.265625 -0.984375 -0.265625q-1.015625 0 -1.6875 0.6875q-0.671875 0.671875 -0.671875 2.15625l0 5.625l-1.640625 0l0 -6.28125q0 -1.09375 -0.40625 -1.640625q-0.40625 -0.546875 -1.3125 -0.546875q-0.6875 0 -1.28125 0.359375q-0.59375 0.359375 -0.859375 1.0625q-0.25 0.703125 -0.25 2.03125l0 5.015625l-1.640625 0zm21.853302 -1.1875q-0.921875 0.765625 -1.765625 1.09375q-0.828125 0.3125 -1.796875 0.3125q-1.59375 0 -2.453125 -0.78125q-0.859375 -0.78125 -0.859375 -1.984375q0 -0.71875 0.328125 -1.296875q0.328125 -0.59375 0.84375 -0.9375q0.53125 -0.359375 1.1875 -0.546875q0.46875 -0.125 1.453125 -0.25q1.984375 -0.234375 2.921875 -0.5625q0.015625 -0.34375 0.015625 -0.421875q0 -1.0 -0.46875 -1.421875q-0.625 -0.546875 -1.875 -0.546875q-1.15625 0 -1.703125 0.40625q-0.546875 0.40625 -0.8125 1.421875l-1.609375 -0.21875q0.21875 -1.015625 0.71875 -1.640625q0.5 -0.640625 1.453125 -0.984375q0.953125 -0.34375 2.1875 -0.34375q1.25 0 2.015625 0.296875q0.78125 0.28125 1.140625 0.734375q0.375 0.4375 0.515625 1.109375q0.078125 0.421875 0.078125 1.515625l0 2.1875q0 2.28125 0.109375 2.890625q0.109375 0.59375 0.40625 1.15625l-1.703125 0q-0.265625 -0.515625 -0.328125 -1.1875zm-0.140625 -3.671875q-0.890625 0.375 -2.671875 0.625q-1.015625 0.140625 -1.4375 0.328125q-0.421875 0.1875 -0.65625 0.53125q-0.21875 0.34375 -0.21875 0.78125q0 0.65625 0.5 1.09375q0.5 0.4375 1.453125 0.4375q0.9375 0 1.671875 -0.40625q0.75 -0.421875 1.09375 -1.140625q0.265625 -0.5625 0.265625 -1.640625l0 -0.609375z" fill-rule="nonzero"/><path fill="#9fa0a4" d="m479.9839 149.35101c-0.26556396 0 -0.47601318 0.1978302 -0.47601318 0.44102478l0 33.04988c0 0.24501038 0.21044922 0.43920898 0.47601318 0.43920898c0.26358032 0 0.47601318 -0.19419861 0.47601318 -0.43920898l0 -33.04988c0 -0.24319458 -0.21243286 -0.44102478 -0.47601318 -0.44102478z" fill-rule="evenodd"/><path stroke="#343434" stroke-width="1.0" stroke-linejoin="round" stroke-linecap="butt" d="m479.9839 149.35101c-0.26556396 0 -0.47601318 0.1978302 -0.47601318 0.44102478l0 33.04988c0 0.24501038 0.21044922 0.43920898 0.47601318 0.43920898c0.26358032 0 0.47601318 -0.19419861 0.47601318 -0.43920898l0 -33.04988c0 -0.24319458 -0.21243286 -0.44102478 -0.47601318 -0.44102478z" fill-rule="evenodd"/><path fill="#435d74" d="m479.98486 146.73117c-1.833252 0 -3.3163757 1.368454 -3.3163757 3.0617828c0 1.6915131 1.4831238 3.059967 3.3163757 3.059967c1.8312988 0 3.3144226 -1.3720856 3.3144226 -3.059967c0 -1.6933289 -1.4831238 -3.0617828 -3.3144226 -3.0617828z" fill-rule="evenodd"/><path stroke="#343434" stroke-width="1.0" stroke-linejoin="round" stroke-linecap="butt" d="m479.98486 146.73117c-1.833252 0 -3.3163757 1.368454 -3.3163757 3.0617828c0 1.6915131 1.4831238 3.059967 3.3163757 3.059967c1.8312988 0 3.3144226 -1.3720856 3.3144226 -3.059967c0 -1.6933289 -1.4831238 -3.0617828 -3.3144226 -3.0617828z" fill-rule="evenodd"/><path fill="#435d74" d="m479.98486 179.77312c-1.833252 0 -3.3163757 1.3666382 -3.3163757 3.0581512c0 1.6915131 1.4831238 3.0599823 3.3163757 3.0599823c1.8312988 0 3.3144226 -1.3720856 3.3144226 -3.0599823c0 -1.6915131 -1.4831238 -3.0581512 -3.3144226 -3.0581512z" fill-rule="evenodd"/><path stroke="#343434" stroke-width="1.0" stroke-linejoin="round" stroke-linecap="butt" d="m479.98486 179.77312c-1.833252 0 -3.3163757 1.3666382 -3.3163757 3.0581512c0 1.6915131 1.4831238 3.0599823 3.3163757 3.0599823c1.8312988 0 3.3144226 -1.3720856 3.3144226 -3.0599823c0 -1.6915131 -1.4831238 -3.0581512 -3.3144226 -3.0581512z" fill-rule="evenodd"/><path fill="#000000" fill-opacity="0.0" d="m447.2634 67.56075c-8.68634 0 -15.728241 6.495636 -15.728241 14.508553l0 43.554695c0 8.014732 7.0419006 14.512169 15.728241 14.512169l65.47012 0c8.688293 0 15.730225 -6.4974365 15.730225 -14.512169l0 -43.554695c0 -8.012917 -7.041931 -14.508553 -15.730225 -14.508553z" fill-rule="evenodd"/><path stroke="#00899d" stroke-width="1.0" stroke-linejoin="round" stroke-linecap="butt" d="m447.2634 67.56075c-8.68634 0 -15.728241 6.495636 -15.728241 14.508553l0 43.554695c0 8.014732 7.0419006 14.512169 15.728241 14.512169l65.47012 0c8.688293 0 15.730225 -6.4974365 15.730225 -14.512169l0 -43.554695c0 -8.012917 -7.041931 -14.508553 -15.730225 -14.508553z" fill-rule="evenodd"/><path fill="#00899d" d="m447.91547 107.877846l1.625 -0.25q0.125 0.96875 0.75 1.5q0.625 0.515625 1.75 0.515625q1.125 0 1.671875 -0.453125q0.546875 -0.46875 0.546875 -1.09375q0 -0.546875 -0.484375 -0.875q-0.328125 -0.21875 -1.671875 -0.546875q-1.8125 -0.46875 -2.515625 -0.796875q-0.6875 -0.328125 -1.046875 -0.90625q-0.359375 -0.59375 -0.359375 -1.3125q0 -0.640625 0.296875 -1.1875q0.296875 -0.5625 0.8125 -0.921875q0.375 -0.28125 1.03125 -0.46875q0.671875 -0.203125 1.421875 -0.203125q1.140625 0 2.0 0.328125q0.859375 0.328125 1.265625 0.890625q0.421875 0.5625 0.578125 1.5l-1.609375 0.21875q-0.109375 -0.75 -0.640625 -1.171875q-0.515625 -0.421875 -1.46875 -0.421875q-1.140625 0 -1.625 0.375q-0.46875 0.375 -0.46875 0.875q0 0.3125 0.1875 0.578125q0.203125 0.265625 0.640625 0.4375q0.234375 0.09375 1.4375 0.421875q1.75 0.453125 2.4375 0.75q0.6875 0.296875 1.078125 0.859375q0.390625 0.5625 0.390625 1.40625q0 0.828125 -0.484375 1.546875q-0.46875 0.71875 -1.375 1.125q-0.90625 0.390625 -2.046875 0.390625q-1.875 0 -2.875 -0.78125q-0.984375 -0.78125 -1.25 -2.328125zm16.296875 -0.65625l1.609375 0.21875q-0.265625 1.65625 -1.359375 2.609375q-1.078125 0.9375 -2.671875 0.9375q-1.984375 0 -3.1875 -1.296875q-1.203125 -1.296875 -1.203125 -3.71875q0 -1.578125 0.515625 -2.75q0.515625 -1.171875 1.578125 -1.75q1.0625 -0.59375 2.3125 -0.59375q1.578125 0 2.578125 0.796875q1.0 0.796875 1.28125 2.265625l-1.59375 0.234375q-0.234375 -0.96875 -0.8125 -1.453125q-0.578125 -0.5 -1.390625 -0.5q-1.234375 0 -2.015625 0.890625q-0.78125 0.890625 -0.78125 2.8125q0 1.953125 0.75 2.84375q0.75 0.875 1.953125 0.875q0.96875 0 1.609375 -0.59375q0.65625 -0.59375 0.828125 -1.828125zm3.015625 3.546875l0 -13.359375l1.640625 0l0 4.796875q1.140625 -1.328125 2.890625 -1.328125q1.078125 0 1.859375 0.421875q0.796875 0.421875 1.140625 1.171875q0.34375 0.75 0.34375 2.171875l0 6.125l-1.640625 0l0 -6.125q0 -1.234375 -0.53125 -1.796875q-0.53125 -0.5625 -1.515625 -0.5625q-0.71875 0 -1.359375 0.390625q-0.640625 0.375 -0.921875 1.015625q-0.265625 0.640625 -0.265625 1.78125l0 5.296875l-1.640625 0zm17.000702 -3.109375l1.6875 0.203125q-0.40625 1.484375 -1.484375 2.3125q-1.078125 0.8125 -2.765625 0.8125q-2.125 0 -3.375 -1.296875q-1.234375 -1.3125 -1.234375 -3.671875q0 -2.453125 1.25 -3.796875q1.265625 -1.34375 3.265625 -1.34375q1.9375 0 3.15625 1.328125q1.234375 1.3125 1.234375 3.703125q0 0.15625 0 0.4375l-7.21875 0q0.09375 1.59375 0.90625 2.453125q0.8125 0.84375 2.015625 0.84375q0.90625 0 1.546875 -0.46875q0.640625 -0.484375 1.015625 -1.515625zm-5.390625 -2.65625l5.40625 0q-0.109375 -1.21875 -0.625 -1.828125q-0.78125 -0.953125 -2.03125 -0.953125q-1.125 0 -1.90625 0.765625q-0.765625 0.75 -0.84375 2.015625zm9.141357 5.765625l0 -9.671875l1.46875 0l0 1.359375q0.453125 -0.71875 1.203125 -1.140625q0.765625 -0.4375 1.71875 -0.4375q1.078125 0 1.765625 0.453125q0.6875 0.4375 0.96875 1.234375q1.15625 -1.6875 2.984375 -1.6875q1.453125 0 2.21875 0.796875q0.78125 0.796875 0.78125 2.453125l0 6.640625l-1.640625 0l0 -6.09375q0 -0.984375 -0.15625 -1.40625q-0.15625 -0.4375 -0.578125 -0.703125q-0.421875 -0.265625 -0.984375 -0.265625q-1.015625 0 -1.6875 0.6875q-0.671875 0.671875 -0.671875 2.15625l0 5.625l-1.640625 0l0 -6.28125q0 -1.09375 -0.40625 -1.640625q-0.40625 -0.546875 -1.3125 -0.546875q-0.6875 0 -1.28125 0.359375q-0.59375 0.359375 -0.859375 1.0625q-0.25 0.703125 -0.25 2.03125l0 5.015625l-1.640625 0zm21.853302 -1.1875q-0.921875 0.765625 -1.765625 1.09375q-0.828125 0.3125 -1.796875 0.3125q-1.59375 0 -2.453125 -0.78125q-0.859375 -0.78125 -0.859375 -1.984375q0 -0.71875 0.328125 -1.296875q0.328125 -0.59375 0.84375 -0.9375q0.53125 -0.359375 1.1875 -0.546875q0.46875 -0.125 1.453125 -0.25q1.984375 -0.234375 2.921875 -0.5625q0.015625 -0.34375 0.015625 -0.421875q0 -1.0 -0.46875 -1.421875q-0.625 -0.546875 -1.875 -0.546875q-1.15625 0 -1.703125 0.40625q-0.546875 0.40625 -0.8125 1.421875l-1.609375 -0.21875q0.21875 -1.015625 0.71875 -1.640625q0.5 -0.640625 1.453125 -0.984375q0.953125 -0.34375 2.1875 -0.34375q1.25 0 2.015625 0.296875q0.78125 0.28125 1.140625 0.734375q0.375 0.4375 0.515625 1.109375q0.078125 0.421875 0.078125 1.515625l0 2.1875q0 2.28125 0.109375 2.890625q0.109375 0.59375 0.40625 1.15625l-1.703125 0q-0.265625 -0.515625 -0.328125 -1.1875zm-0.140625 -3.671875q-0.890625 0.375 -2.671875 0.625q-1.015625 0.140625 -1.4375 0.328125q-0.421875 0.1875 -0.65625 0.53125q-0.21875 0.34375 -0.21875 0.78125q0 0.65625 0.5 1.09375q0.5 0.4375 1.453125 0.4375q0.9375 0 1.671875 -0.40625q0.75 -0.421875 1.09375 -1.140625q0.265625 -0.5625 0.265625 -1.640625l0 -0.609375z" fill-rule="nonzero"/><path fill="#9fa0a4" d="m607.14386 149.3492c-0.2635498 0 -0.47601318 0.19419861 -0.47601318 0.43920898c0 6.720688 -5.930542 12.192703 -13.2144165 12.192703l-79.48706 0c-6.99469 0 -12.689178 5.2560425 -12.689178 11.708115l0 9.152695c0 0.24501038 0.21438599 0.43920898 0.47601318 0.43920898c0.2694702 0 0.48190308 -0.19419861 0.47994995 -0.43920898l0 -9.152695c0 -5.971115 5.263733 -10.826065 11.733215 -10.826065l79.4812 0c7.8149414 0 14.172302 -5.8658447 14.172302 -13.074753c0 -0.24501038 -0.2144165 -0.43920898 -0.47601318 -0.43920898z" fill-rule="evenodd"/><path stroke="#343434" stroke-width="1.0" stroke-linejoin="round" stroke-linecap="butt" d="m607.14386 149.3492c-0.2635498 0 -0.47601318 0.19419861 -0.47601318 0.43920898c0 6.720688 -5.930542 12.192703 -13.2144165 12.192703l-79.48706 0c-6.99469 0 -12.689178 5.2560425 -12.689178 11.708115l0 9.152695c0 0.24501038 0.21438599 0.43920898 0.47601318 0.43920898c0.2694702 0 0.48190308 -0.19419861 0.47994995 -0.43920898l0 -9.152695c0 -5.971115 5.263733 -10.826065 11.733215 -10.826065l79.4812 0c7.8149414 0 14.172302 -5.8658447 14.172302 -13.074753c0 -0.24501038 -0.2144165 -0.43920898 -0.47601318 -0.43920898z" fill-rule="evenodd"/><path fill="#435d74" d="m607.1085 146.73117c-1.833252 0 -3.3182983 1.368454 -3.3182983 3.0617828c0 1.6915131 1.4850464 3.059967 3.3182983 3.059967c1.833313 -0.005432129 3.3164062 -1.3720856 3.3164062 -3.059967c0 -1.6933289 -1.4830933 -3.0617828 -3.3164062 -3.0617828z" fill-rule="evenodd"/><path stroke="#343434" stroke-width="1.0" stroke-linejoin="round" stroke-linecap="butt" d="m607.1085 146.73117c-1.833252 0 -3.3182983 1.368454 -3.3182983 3.0617828c0 1.6915131 1.4850464 3.059967 3.3182983 3.059967c1.833313 -0.005432129 3.3164062 -1.3720856 3.3164062 -3.059967c0 -1.6933289 -1.4830933 -3.0617828 -3.3164062 -3.0617828z" fill-rule="evenodd"/><path fill="#435d74" d="m501.75418 179.77312c-1.833252 0 -3.3144226 1.3666382 -3.3144226 3.0581512c0 1.6915131 1.4811707 3.0599823 3.3144226 3.0599823c1.833252 0 3.3183594 -1.3720856 3.3183594 -3.0599823c0 -1.6915131 -1.4851074 -3.0581512 -3.3183594 -3.0581512z" fill-rule="evenodd"/><path stroke="#343434" stroke-width="1.0" stroke-linejoin="round" stroke-linecap="butt" d="m501.75418 179.77312c-1.833252 0 -3.3144226 1.3666382 -3.3144226 3.0581512c0 1.6915131 1.4811707 3.0599823 3.3144226 3.0599823c1.833252 0 3.3183594 -1.3720856 3.3183594 -3.0599823c0 -1.6915131 -1.4851074 -3.0581512 -3.3183594 -3.0581512z" fill-rule="evenodd"/><path fill="#000000" fill-opacity="0.0" d="m574.3871 67.56075c-8.684387 0 -15.726318 6.495636 -15.726318 14.508553l0 43.554695c0 8.014732 7.041931 14.512169 15.726318 14.512169l65.47601 0c8.68634 0 15.72821 -6.4974365 15.72821 -14.512169l0 -43.554695c0 -8.012917 -7.04187 -14.508553 -15.72821 -14.508553z" fill-rule="evenodd"/><path stroke="#00899d" stroke-width="1.0" stroke-linejoin="round" stroke-linecap="butt" d="m574.3871 67.56075c-8.684387 0 -15.726318 6.495636 -15.726318 14.508553l0 43.554695c0 8.014732 7.041931 14.512169 15.726318 14.512169l65.47601 0c8.68634 0 15.72821 -6.4974365 15.72821 -14.512169l0 -43.554695c0 -8.012917 -7.04187 -14.508553 -15.72821 -14.508553z" fill-rule="evenodd"/><path fill="#00899d" d="m575.0431 107.877846l1.625 -0.25q0.125 0.96875 0.75 1.5q0.625 0.515625 1.75 0.515625q1.125 0 1.671875 -0.453125q0.546875 -0.46875 0.546875 -1.09375q0 -0.546875 -0.484375 -0.875q-0.328125 -0.21875 -1.671875 -0.546875q-1.8125 -0.46875 -2.515625 -0.796875q-0.6875 -0.328125 -1.046875 -0.90625q-0.359375 -0.59375 -0.359375 -1.3125q0 -0.640625 0.296875 -1.1875q0.296875 -0.5625 0.8125 -0.921875q0.375 -0.28125 1.03125 -0.46875q0.671875 -0.203125 1.421875 -0.203125q1.140625 0 2.0 0.328125q0.859375 0.328125 1.265625 0.890625q0.421875 0.5625 0.578125 1.5l-1.609375 0.21875q-0.109375 -0.75 -0.640625 -1.171875q-0.515625 -0.421875 -1.46875 -0.421875q-1.140625 0 -1.625 0.375q-0.46875 0.375 -0.46875 0.875q0 0.3125 0.1875 0.578125q0.203125 0.265625 0.640625 0.4375q0.234375 0.09375 1.4375 0.421875q1.75 0.453125 2.4375 0.75q0.6875 0.296875 1.078125 0.859375q0.390625 0.5625 0.390625 1.40625q0 0.828125 -0.484375 1.546875q-0.46875 0.71875 -1.375 1.125q-0.90625 0.390625 -2.046875 0.390625q-1.875 0 -2.875 -0.78125q-0.984375 -0.78125 -1.25 -2.328125zm16.296875 -0.65625l1.609375 0.21875q-0.265625 1.65625 -1.359375 2.609375q-1.078125 0.9375 -2.671875 0.9375q-1.984375 0 -3.1875 -1.296875q-1.203125 -1.296875 -1.203125 -3.71875q0 -1.578125 0.515625 -2.75q0.515625 -1.171875 1.578125 -1.75q1.0625 -0.59375 2.3125 -0.59375q1.578125 0 2.578125 0.796875q1.0 0.796875 1.28125 2.265625l-1.59375 0.234375q-0.234375 -0.96875 -0.8125 -1.453125q-0.578125 -0.5 -1.390625 -0.5q-1.234375 0 -2.015625 0.890625q-0.78125 0.890625 -0.78125 2.8125q0 1.953125 0.75 2.84375q0.75 0.875 1.953125 0.875q0.96875 0 1.609375 -0.59375q0.65625 -0.59375 0.828125 -1.828125zm3.015625 3.546875l0 -13.359375l1.640625 0l0 4.796875q1.140625 -1.328125 2.890625 -1.328125q1.078125 0 1.859375 0.421875q0.796875 0.421875 1.140625 1.171875q0.34375 0.75 0.34375 2.171875l0 6.125l-1.640625 0l0 -6.125q0 -1.234375 -0.53125 -1.796875q-0.53125 -0.5625 -1.515625 -0.5625q-0.71875 0 -1.359375 0.390625q-0.640625 0.375 -0.921875 1.015625q-0.265625 0.640625 -0.265625 1.78125l0 5.296875l-1.640625 0zm17.000671 -3.109375l1.6875 0.203125q-0.40625 1.484375 -1.484375 2.3125q-1.078125 0.8125 -2.765625 0.8125q-2.125 0 -3.375 -1.296875q-1.234375 -1.3125 -1.234375 -3.671875q0 -2.453125 1.25 -3.796875q1.265625 -1.34375 3.265625 -1.34375q1.9375 0 3.15625 1.328125q1.234375 1.3125 1.234375 3.703125q0 0.15625 0 0.4375l-7.21875 0q0.09375 1.59375 0.90625 2.453125q0.8125 0.84375 2.015625 0.84375q0.90625 0 1.546875 -0.46875q0.640625 -0.484375 1.015625 -1.515625zm-5.390625 -2.65625l5.40625 0q-0.109375 -1.21875 -0.625 -1.828125q-0.78125 -0.953125 -2.03125 -0.953125q-1.125 0 -1.90625 0.765625q-0.765625 0.75 -0.84375 2.015625zm9.141357 5.765625l0 -9.671875l1.46875 0l0 1.359375q0.453125 -0.71875 1.203125 -1.140625q0.765625 -0.4375 1.71875 -0.4375q1.078125 0 1.765625 0.453125q0.6875 0.4375 0.96875 1.234375q1.15625 -1.6875 2.984375 -1.6875q1.453125 0 2.21875 0.796875q0.78125 0.796875 0.78125 2.453125l0 6.640625l-1.640625 0l0 -6.09375q0 -0.984375 -0.15625 -1.40625q-0.15625 -0.4375 -0.578125 -0.703125q-0.421875 -0.265625 -0.984375 -0.265625q-1.015625 0 -1.6875 0.6875q-0.671875 0.671875 -0.671875 2.15625l0 5.625l-1.640625 0l0 -6.28125q0 -1.09375 -0.40625 -1.640625q-0.40625 -0.546875 -1.3125 -0.546875q-0.6875 0 -1.28125 0.359375q-0.59375 0.359375 -0.859375 1.0625q-0.25 0.703125 -0.25 2.03125l0 5.015625l-1.640625 0zm21.853333 -1.1875q-0.921875 0.765625 -1.765625 1.09375q-0.828125 0.3125 -1.796875 0.3125q-1.59375 0 -2.453125 -0.78125q-0.859375 -0.78125 -0.859375 -1.984375q0 -0.71875 0.328125 -1.296875q0.328125 -0.59375 0.84375 -0.9375q0.53125 -0.359375 1.1875 -0.546875q0.46875 -0.125 1.453125 -0.25q1.984375 -0.234375 2.921875 -0.5625q0.015625 -0.34375 0.015625 -0.421875q0 -1.0 -0.46875 -1.421875q-0.625 -0.546875 -1.875 -0.546875q-1.15625 0 -1.703125 0.40625q-0.546875 0.40625 -0.8125 1.421875l-1.609375 -0.21875q0.21875 -1.015625 0.71875 -1.640625q0.5 -0.640625 1.453125 -0.984375q0.953125 -0.34375 2.1875 -0.34375q1.25 0 2.015625 0.296875q0.78125 0.28125 1.140625 0.734375q0.375 0.4375 0.515625 1.109375q0.078125 0.421875 0.078125 1.515625l0 2.1875q0 2.28125 0.109375 2.890625q0.109375 0.59375 0.40625 1.15625l-1.703125 0q-0.265625 -0.515625 -0.328125 -1.1875zm-0.140625 -3.671875q-0.890625 0.375 -2.671875 0.625q-1.015625 0.140625 -1.4375 0.328125q-0.421875 0.1875 -0.65625 0.53125q-0.21875 0.34375 -0.21875 0.78125q0 0.65625 0.5 1.09375q0.5 0.4375 1.453125 0.4375q0.9375 0 1.671875 -0.40625q0.75 -0.421875 1.09375 -1.140625q0.265625 -0.5625 0.265625 -1.640625l0 -0.609375z" fill-rule="nonzero"/><path fill="#9fa0a4" d="m501.7532 271.30252c-0.2616272 0 -0.47601318 0.19781494 -0.47601318 0.43920898l0 9.1545105c0 6.4556885 5.6944885 11.706299 12.689178 11.706299l79.489075 0c7.287781 0 13.214355 5.4720154 13.214355 12.19632c0 0.24139404 0.2144165 0.43920898 0.47601318 0.43920898c0.26556396 0 0.47607422 -0.19781494 0.47406006 -0.43920898c0 -7.208893 -6.357361 -13.0784 -14.172302 -13.0784l-79.48511 0c-6.469513 0 -11.733246 -4.853119 -11.733246 -10.824219l0 -9.1545105c0 -0.24139404 -0.21243286 -0.43920898 -0.47601318 -0.43920898z" fill-rule="evenodd"/><path stroke="#343434" stroke-width="1.0" stroke-linejoin="round" stroke-linecap="butt" d="m501.7532 271.30252c-0.2616272 0 -0.47601318 0.19781494 -0.47601318 0.43920898l0 9.1545105c0 6.4556885 5.6944885 11.706299 12.689178 11.706299l79.489075 0c7.287781 0 13.214355 5.4720154 13.214355 12.19632c0 0.24139404 0.2144165 0.43920898 0.47601318 0.43920898c0.26556396 0 0.47607422 -0.19781494 0.47406006 -0.43920898c0 -7.208893 -6.357361 -13.0784 -14.172302 -13.0784l-79.48511 0c-6.469513 0 -11.733246 -4.853119 -11.733246 -10.824219l0 -9.1545105c0 -0.24139404 -0.21243286 -0.43920898 -0.47601318 -0.43920898z" fill-rule="evenodd"/><path fill="#435d74" d="m607.1085 301.72644c-1.833252 0 -3.3182983 1.3702698 -3.3182983 3.0617676c0 1.6915283 1.4850464 3.059967 3.3182983 3.059967c1.833313 0 3.3164062 -1.3684387 3.3164062 -3.059967c0 -1.6914978 -1.4830933 -3.0617676 -3.3164062 -3.0617676z" fill-rule="evenodd"/><path stroke="#343434" stroke-width="1.0" stroke-linejoin="round" stroke-linecap="butt" d="m607.1085 301.72644c-1.833252 0 -3.3182983 1.3702698 -3.3182983 3.0617676c0 1.6915283 1.4850464 3.059967 3.3182983 3.059967c1.833313 0 3.3164062 -1.3684387 3.3164062 -3.059967c0 -1.6914978 -1.4830933 -3.0617676 -3.3164062 -3.0617676z" fill-rule="evenodd"/><path fill="#435d74" d="m501.75418 268.6881c-1.833252 0 -3.3144226 1.3666382 -3.3144226 3.0581665c0 1.6914978 1.4811707 3.059967 3.3144226 3.059967c1.833252 0 3.3183594 -1.3684692 3.3183594 -3.059967c0 -1.6915283 -1.4851074 -3.0581665 -3.3183594 -3.0581665z" fill-rule="evenodd"/><path stroke="#343434" stroke-width="1.0" stroke-linejoin="round" stroke-linecap="butt" d="m501.75418 268.6881c-1.833252 0 -3.3144226 1.3666382 -3.3144226 3.0581665c0 1.6914978 1.4811707 3.059967 3.3144226 3.059967c1.833252 0 3.3183594 -1.3684692 3.3183594 -3.059967c0 -1.6915283 -1.4851074 -3.0581665 -3.3183594 -3.0581665z" fill-rule="evenodd"/><path fill="#000000" fill-opacity="0.0" d="m574.3871 314.4628c-8.684387 0 -15.726318 6.4956055 -15.726318 14.510345l0 43.554688c0 8.01474 7.041931 14.510376 15.726318 14.510376l65.47601 0c8.68634 0 15.72821 -6.495636 15.72821 -14.510376l0 -43.554688c0 -8.01474 -7.04187 -14.510345 -15.72821 -14.510345z" fill-rule="evenodd"/><path stroke="#ff7210" stroke-width="1.0" stroke-linejoin="round" stroke-linecap="butt" d="m574.3871 314.4628c-8.684387 0 -15.726318 6.4956055 -15.726318 14.510345l0 43.554688c0 8.01474 7.041931 14.510376 15.726318 14.510376l65.47601 0c8.68634 0 15.72821 -6.495636 15.72821 -14.510376l0 -43.554688c0 -8.01474 -7.04187 -14.510345 -15.72821 -14.510345z" fill-rule="evenodd"/><path fill="#ff7210" d="m608.0021 344.31113l1.765625 0l0 7.71875q0 2.015625 -0.453125 3.203125q-0.453125 1.1875 -1.640625 1.9375q-1.1875 0.734375 -3.125 0.734375q-1.875 0 -3.078125 -0.640625q-1.1875 -0.65625 -1.703125 -1.875q-0.5 -1.234375 -0.5 -3.359375l0 -7.71875l1.765625 0l0 7.71875q0 1.734375 0.3125 2.5625q0.328125 0.8125 1.109375 1.265625q0.796875 0.453125 1.9375 0.453125q1.953125 0 2.78125 -0.890625q0.828125 -0.890625 0.828125 -3.390625l0 -7.71875zm5.0041504 13.359375l0 -13.359375l1.765625 0l0 13.359375l-1.765625 0z" fill-rule="nonzero"/><path fill="#9fa0a4" d="m458.24496 271.30252c-0.26553345 0 -0.47601318 0.19781494 -0.47601318 0.43920898l0 9.1545105c0 5.9711 -5.263733 10.824219 -11.733246 10.824219l-79.48508 0c-7.8149414 0 -14.172333 5.869507 -14.172333 13.0784c0 0.24139404 0.21438599 0.43920898 0.47601318 0.43920898c0.26358032 0 0.4779663 -0.19781494 0.4779663 -0.43920898c0 -6.724304 5.928589 -12.19632 13.212433 -12.19632l79.48706 0c6.9966736 0 12.689209 -5.2506104 12.689209 -11.706299l0 -9.1545105c0 -0.24139404 -0.21243286 -0.43920898 -0.47601318 -0.43920898z" fill-rule="evenodd"/><path stroke="#343434" stroke-width="1.0" stroke-linejoin="round" stroke-linecap="butt" d="m458.24496 271.30252c-0.26553345 0 -0.47601318 0.19781494 -0.47601318 0.43920898l0 9.1545105c0 5.9711 -5.263733 10.824219 -11.733246 10.824219l-79.48508 0c-7.8149414 0 -14.172333 5.869507 -14.172333 13.0784c0 0.24139404 0.21438599 0.43920898 0.47601318 0.43920898c0.26358032 0 0.4779663 -0.19781494 0.4779663 -0.43920898c0 -6.724304 5.928589 -12.19632 13.212433 -12.19632l79.48706 0c6.9966736 0 12.689209 -5.2506104 12.689209 -11.706299l0 -9.1545105c0 -0.24139404 -0.21243286 -0.43920898 -0.47601318 -0.43920898z" fill-rule="evenodd"/><path fill="#435d74" d="m352.8553 301.72644c-1.833252 0 -3.3164062 1.3702698 -3.3164062 3.0617676c0 1.6915283 1.4831543 3.059967 3.3164062 3.059967c1.833252 0 3.3183594 -1.3684387 3.3183594 -3.059967c0 -1.6914978 -1.4851074 -3.0617676 -3.3183594 -3.0617676z" fill-rule="evenodd"/><path stroke="#343434" stroke-width="1.0" stroke-linejoin="round" stroke-linecap="butt" d="m352.8553 301.72644c-1.833252 0 -3.3164062 1.3702698 -3.3164062 3.0617676c0 1.6915283 1.4831543 3.059967 3.3164062 3.059967c1.833252 0 3.3183594 -1.3684387 3.3183594 -3.059967c0 -1.6914978 -1.4851074 -3.0617676 -3.3183594 -3.0617676z" fill-rule="evenodd"/><path fill="#435d74" d="m458.20966 268.6881c-1.833252 0 -3.3164062 1.3666382 -3.3164062 3.0581665c0 1.6914978 1.4831543 3.059967 3.3164062 3.059967c1.833252 0 3.3144226 -1.3684692 3.3144226 -3.059967c0 -1.6915283 -1.4811707 -3.0581665 -3.3144226 -3.0581665z" fill-rule="evenodd"/><path stroke="#343434" stroke-width="1.0" stroke-linejoin="round" stroke-linecap="butt" d="m458.20966 268.6881c-1.833252 0 -3.3164062 1.3666382 -3.3164062 3.0581665c0 1.6914978 1.4831543 3.059967 3.3164062 3.059967c1.833252 0 3.3144226 -1.3684692 3.3144226 -3.059967c0 -1.6915283 -1.4811707 -3.0581665 -3.3144226 -3.0581665z" fill-rule="evenodd"/><path fill="#000000" fill-opacity="0.0" d="m320.13577 314.4628c-8.688293 0 -15.730225 6.4956055 -15.730225 14.510345l0 43.554688c0 8.01474 7.041931 14.510376 15.730225 14.510376l65.47208 0c8.684387 0 15.726288 -6.495636 15.726288 -14.510376l0 -43.554688c0.001953125 -8.01474 -7.0419006 -14.510345 -15.726288 -14.510345z" fill-rule="evenodd"/><path stroke="#ff7210" stroke-width="1.0" stroke-linejoin="round" stroke-linecap="butt" d="m320.13577 314.4628c-8.688293 0 -15.730225 6.4956055 -15.730225 14.510345l0 43.554688c0 8.01474 7.041931 14.510376 15.730225 14.510376l65.47208 0c8.684387 0 15.726288 -6.495636 15.726288 -14.510376l0 -43.554688c0.001953125 -8.01474 -7.0419006 -14.510345 -15.726288 -14.510345z" fill-rule="evenodd"/><path fill="#ff7210" d="m353.74683 344.31113l1.765625 0l0 7.71875q0 2.015625 -0.453125 3.203125q-0.453125 1.1875 -1.640625 1.9375q-1.1875 0.734375 -3.125 0.734375q-1.875 0 -3.078125 -0.640625q-1.1875 -0.65625 -1.703125 -1.875q-0.5 -1.234375 -0.5 -3.359375l0 -7.71875l1.765625 0l0 7.71875q0 1.734375 0.3125 2.5625q0.328125 0.8125 1.109375 1.265625q0.796875 0.453125 1.9375 0.453125q1.953125 0 2.78125 -0.890625q0.828125 -0.890625 0.828125 -3.390625l0 -7.71875zm5.004181 13.359375l0 -13.359375l1.765625 0l0 13.359375l-1.765625 0z" fill-rule="nonzero"/><path fill="#9fa0a4" d="m479.9839 271.30615c-0.26556396 0 -0.47601318 0.19598389 -0.47601318 0.43920898l0 33.053497c0 0.24139404 0.21044922 0.43920898 0.47601318 0.43920898c0.26358032 0 0.47601318 -0.19781494 0.47601318 -0.43920898l0 -33.053497c0 -0.2432251 -0.21243286 -0.43920898 -0.47601318 -0.43920898z" fill-rule="evenodd"/><path stroke="#343434" stroke-width="1.0" stroke-linejoin="round" stroke-linecap="butt" d="m479.9839 271.30615c-0.26556396 0 -0.47601318 0.19598389 -0.47601318 0.43920898l0 33.053497c0 0.24139404 0.21044922 0.43920898 0.47601318 0.43920898c0.26358032 0 0.47601318 -0.19781494 0.47601318 -0.43920898l0 -33.053497c0 -0.2432251 -0.21243286 -0.43920898 -0.47601318 -0.43920898z" fill-rule="evenodd"/><path fill="#435d74" d="m479.98486 301.72644c-1.833252 0 -3.3163757 1.3702698 -3.3163757 3.0617676c0 1.6915283 1.4831238 3.059967 3.3163757 3.059967c1.8312988 0 3.3144226 -1.3684387 3.3144226 -3.059967c0 -1.6914978 -1.4831238 -3.0617676 -3.3144226 -3.0617676z" fill-rule="evenodd"/><path stroke="#343434" stroke-width="1.0" stroke-linejoin="round" stroke-linecap="butt" d="m479.98486 301.72644c-1.833252 0 -3.3163757 1.3702698 -3.3163757 3.0617676c0 1.6915283 1.4831238 3.059967 3.3163757 3.059967c1.8312988 0 3.3144226 -1.3684387 3.3144226 -3.059967c0 -1.6914978 -1.4831238 -3.0617676 -3.3144226 -3.0617676z" fill-rule="evenodd"/><path fill="#435d74" d="m479.98486 268.6881c-1.833252 0 -3.3163757 1.3666382 -3.3163757 3.0581665c0 1.6914978 1.4831238 3.059967 3.3163757 3.059967c1.8312988 0 3.3144226 -1.3684692 3.3144226 -3.059967c0 -1.6915283 -1.4831238 -3.0581665 -3.3144226 -3.0581665z" fill-rule="evenodd"/><path stroke="#343434" stroke-width="1.0" stroke-linejoin="round" stroke-linecap="butt" d="m479.98486 268.6881c-1.833252 0 -3.3163757 1.3666382 -3.3163757 3.0581665c0 1.6914978 1.4831238 3.059967 3.3163757 3.059967c1.8312988 0 3.3144226 -1.3684692 3.3144226 -3.059967c0 -1.6915283 -1.4831238 -3.0581665 -3.3144226 -3.0581665z" fill-rule="evenodd"/><path fill="#000000" fill-opacity="0.0" d="m447.2634 314.4628c-8.68634 0 -15.728241 6.4956055 -15.728241 14.510345l0 43.554688c0 8.01474 7.0419006 14.510376 15.728241 14.510376l65.47012 0c8.688293 0 15.730225 -6.495636 15.730225 -14.510376l0 -43.554688c0 -8.01474 -7.041931 -14.510345 -15.730225 -14.510345z" fill-rule="evenodd"/><path stroke="#ff7210" stroke-width="1.0" stroke-linejoin="round" stroke-linecap="butt" d="m447.2634 314.4628c-8.68634 0 -15.728241 6.4956055 -15.728241 14.510345l0 43.554688c0 8.01474 7.0419006 14.510376 15.728241 14.510376l65.47012 0c8.688293 0 15.730225 -6.495636 15.730225 -14.510376l0 -43.554688c0 -8.01474 -7.041931 -14.510345 -15.730225 -14.510345z" fill-rule="evenodd"/><path fill="#ff7210" d="m480.87442 344.31113l1.765625 0l0 7.71875q0 2.015625 -0.453125 3.203125q-0.453125 1.1875 -1.640625 1.9375q-1.1875 0.734375 -3.125 0.734375q-1.875 0 -3.078125 -0.640625q-1.1875 -0.65625 -1.703125 -1.875q-0.5 -1.234375 -0.5 -3.359375l0 -7.71875l1.765625 0l0 7.71875q0 1.734375 0.3125 2.5625q0.328125 0.8125 1.109375 1.265625q0.796875 0.453125 1.9375 0.453125q1.953125 0 2.78125 -0.890625q0.828125 -0.890625 0.828125 -3.390625l0 -7.71875zm5.0042114 13.359375l0 -13.359375l1.765625 0l0 13.359375l-1.765625 0z" fill-rule="nonzero"/><path fill="#000000" fill-opacity="0.0" d="m333.428 415.62164c-16.031342 0 -29.00235 12.706085 -28.982086 28.390167c-0.020263672 15.703949 12.950745 28.390198 28.982086 28.410065l293.16495 0c16.011047 -0.019866943 28.982056 -12.706116 28.982056 -28.410065c0 -15.684082 -12.971008 -28.390167 -28.982056 -28.390167z" fill-rule="evenodd"/><path stroke="#343434" stroke-width="1.0" stroke-linejoin="round" stroke-linecap="butt" d="m333.428 415.62164c-16.031342 0 -29.00235 12.706085 -28.982086 28.390167c-0.020263672 15.703949 12.950745 28.390198 28.982086 28.410065l293.16495 0c16.011047 -0.019866943 28.982056 -12.706116 28.982056 -28.410065c0 -15.684082 -12.971008 -28.390167 -28.982056 -28.390167z" fill-rule="evenodd"/><path fill="#343434" d="m441.96933 446.64487l1.65625 -0.140625q0.125 1.0 0.546875 1.640625q0.4375 0.640625 1.34375 1.046875q0.921875 0.390625 2.0625 0.390625q1.0 0 1.78125 -0.296875q0.78125 -0.296875 1.15625 -0.8125q0.375 -0.53125 0.375 -1.15625q0 -0.625 -0.375 -1.09375q-0.359375 -0.46875 -1.1875 -0.796875q-0.546875 -0.203125 -2.390625 -0.640625q-1.828125 -0.453125 -2.5625 -0.84375q-0.96875 -0.5 -1.4375 -1.234375q-0.46875 -0.75 -0.46875 -1.671875q0 -1.0 0.578125 -1.875q0.578125 -0.890625 1.671875 -1.34375q1.109375 -0.453125 2.453125 -0.453125q1.484375 0 2.609375 0.484375q1.140625 0.46875 1.75 1.40625q0.609375 0.921875 0.65625 2.09375l-1.6875 0.125q-0.140625 -1.265625 -0.9375 -1.90625q-0.78125 -0.65625 -2.3125 -0.65625q-1.609375 0 -2.34375 0.59375q-0.734375 0.59375 -0.734375 1.421875q0 0.71875 0.53125 1.171875q0.5 0.46875 2.65625 0.96875q2.15625 0.484375 2.953125 0.84375q1.171875 0.53125 1.71875 1.359375q0.5625 0.828125 0.5625 1.90625q0 1.0625 -0.609375 2.015625q-0.609375 0.9375 -1.75 1.46875q-1.140625 0.515625 -2.578125 0.515625q-1.8125 0 -3.046875 -0.53125q-1.21875 -0.53125 -1.921875 -1.59375q-0.6875 -1.0625 -0.71875 -2.40625zm22.568573 -0.390625l1.765625 0.453125q-0.5625 2.171875 -2.0 3.328125q-1.4375 1.140625 -3.53125 1.140625q-2.15625 0 -3.515625 -0.875q-1.34375 -0.890625 -2.0625 -2.546875q-0.703125 -1.671875 -0.703125 -3.59375q0 -2.078125 0.796875 -3.625q0.796875 -1.5625 2.265625 -2.359375q1.484375 -0.8125 3.25 -0.8125q2.0 0 3.359375 1.015625q1.375 1.015625 1.90625 2.875l-1.734375 0.40625q-0.46875 -1.453125 -1.359375 -2.109375q-0.875 -0.671875 -2.203125 -0.671875q-1.546875 0 -2.578125 0.734375q-1.03125 0.734375 -1.453125 1.984375q-0.421875 1.234375 -0.421875 2.5625q0 1.703125 0.5 2.96875q0.5 1.265625 1.546875 1.90625q1.046875 0.625 2.265625 0.625q1.484375 0 2.515625 -0.859375q1.03125 -0.859375 1.390625 -2.546875zm3.972931 4.6875l0 -13.359375l5.921875 0q1.78125 0 2.703125 0.359375q0.9375 0.359375 1.484375 1.28125q0.5625 0.90625 0.5625 2.015625q0 1.40625 -0.921875 2.390625q-0.921875 0.96875 -2.84375 1.234375q0.703125 0.34375 1.078125 0.671875q0.765625 0.703125 1.453125 1.765625l2.328125 3.640625l-2.21875 0l-1.765625 -2.78125q-0.78125 -1.203125 -1.28125 -1.828125q-0.5 -0.640625 -0.90625 -0.890625q-0.390625 -0.265625 -0.796875 -0.359375q-0.296875 -0.078125 -0.984375 -0.078125l-2.046875 0l0 5.9375l-1.765625 0zm1.765625 -7.453125l3.796875 0q1.21875 0 1.890625 -0.25q0.6875 -0.265625 1.046875 -0.8125q0.359375 -0.546875 0.359375 -1.1875q0 -0.953125 -0.6875 -1.5625q-0.6875 -0.609375 -2.1875 -0.609375l-4.21875 0l0 4.421875zm11.707336 7.453125l0 -13.359375l9.65625 0l0 1.578125l-7.875 0l0 4.09375l7.375 0l0 1.5625l-7.375 0l0 4.546875l8.1875 0l0 1.578125l-9.96875 0zm12.443573 0l0 -13.359375l9.65625 0l0 1.578125l-7.875 0l0 4.09375l7.375 0l0 1.5625l-7.375 0l0 4.546875l8.1875 0l0 1.578125l-9.96875 0zm12.396698 0l0 -13.359375l1.8125 0l7.0155945 10.484375l0 -10.484375l1.6875 0l0 13.359375l-1.8125 0l-7.0155945 -10.5l0 10.5l-1.6875 0z" fill-rule="nonzero"/></g></svg>